<svg xmlns="http://www.w3.org/2000/svg" width="87" height="32" viewBox="0 0 87 32"><title>cobrand2</title><path d="M10.09,19.68a1,1,0,1,0,1.94,0A2.71,2.71,0,0,1,14.74,17a1,1,0,1,0,0-1.94,4.65,4.65,0,0,0-4.65,4.65M7.36,16a2.71,2.71,0,1,1-2.71-2.71A2.71,2.71,0,0,1,7.36,16M9.3,16a4.65,4.65,0,1,0-4.65,4.65A4.65,4.65,0,0,0,9.3,16m13.5-3.09a1,1,0,0,0-.19-1.37,1,1,0,0,0-1.37.22l-1.47,2.1a.38.38,0,0,1-.63,0l-1.47-2.1a1,1,0,0,0-.79-.41H11.06a1,1,0,0,0-1,1v1.9a1,1,0,0,0,.94,1,1,1,0,0,0,1-1v-.59a.39.39,0,0,1,.39-.38h3.75a.4.4,0,0,1,.32.16l1.31,1.88a1.17,1.17,0,0,1,0,1.34l-1.69,2.42a1,1,0,0,0,.19,1.37,1,1,0,0,0,1.37-.22l1.47-2.1a.38.38,0,0,1,.63,0l1.44,2.06a1,1,0,0,0,1.35.29,1,1,0,0,0,.26-1.36L21.1,16.67a1.17,1.17,0,0,1,0-1.34Z" style="fill:#ff9e1b"/><path d="M31.21,19.38h0a3.89,3.89,0,0,0,1.58.35,3.73,3.73,0,0,0,1.32-.22,3.05,3.05,0,0,0,1-.6h0a2.59,2.59,0,0,0,.67-.91,2.51,2.51,0,0,0,.24-1.12,2.31,2.31,0,0,0-.29-1.23,2.46,2.46,0,0,0-.89-.86h0l-.68-.42L33.54,14l0,0h0a.19.19,0,0,1,.07-.15h0a.44.44,0,0,1,.31-.08.83.83,0,0,1,.43.12h0a2.55,2.55,0,0,1,.51.4l.27.28.28-.27,1.13-1.06.28-.26-.24-.29a3.8,3.8,0,0,0-1.18-.94,3.07,3.07,0,0,0-1.42-.35,3.45,3.45,0,0,0-1.2.22,3,3,0,0,0-1,.59,2.64,2.64,0,0,0-.66.86,2.38,2.38,0,0,0-.26,1.11,2.35,2.35,0,0,0,.35,1.34h0a3.2,3.2,0,0,0,.92.87h0l.64.4h0c.25.15.45.28.59.38h0s0,0,0,0h0v0a.15.15,0,0,1-.07.15h0a.66.66,0,0,1-.38.09,1.24,1.24,0,0,1-.64-.19,2.32,2.32,0,0,1-.59-.54l-.24-.33-.32.25-1.29,1-.31.24.23.31A3.81,3.81,0,0,0,31.21,19.38Z" style="fill:#fff"/><path d="M32.8,20.14a4.22,4.22,0,0,1-1.74-.39h0l.16-.36-.16.36a4.13,4.13,0,0,1-1.58-1.34L29,17.78l2.19-1.73a3.19,3.19,0,0,1-.33-.4h0a3,3,0,0,1-.11-2.84,3.2,3.2,0,0,1,.76-1,3.29,3.29,0,0,1,1.1-.66,3.75,3.75,0,0,1,1.34-.24,3.47,3.47,0,0,1,1.6.39,3.91,3.91,0,0,1,1.3,1l.48.57-1.89,1.78a2.54,2.54,0,0,1,1,2.2,3,3,0,0,1-1,2.32h0a3.59,3.59,0,0,1-1.16.68A4.51,4.51,0,0,1,32.8,20.14ZM31.38,19a3.52,3.52,0,0,0,1.42.32A3.67,3.67,0,0,0,34,19.15a2.92,2.92,0,0,0,.9-.52,2.34,2.34,0,0,0,.58-.79,2.17,2.17,0,0,0,.21-.95,1.9,1.9,0,0,0-.24-1h0a2,2,0,0,0-.76-.72L34,14.71l-.67-.42h0a.64.64,0,0,1-.16-.17l0,0,0-.06V14a.07.07,0,0,1,0,0,.59.59,0,0,1,.2-.44h0a.78.78,0,0,1,.59-.19,1.17,1.17,0,0,1,.64.18h0a3,3,0,0,1,.58.46h0l1.13-1.06h0a3.25,3.25,0,0,0-1-.84h0a2.67,2.67,0,0,0-1.23-.31,3.11,3.11,0,0,0-1.06.19,3,3,0,0,0-.85.51h0a2.44,2.44,0,0,0-.58.74,2.11,2.11,0,0,0-.21.93,2,2,0,0,0,.28,1.12,2.78,2.78,0,0,0,.8.76h0l.64.4c.25.16.46.29.61.4h0a.46.46,0,0,1,.17.17.42.42,0,0,1,0,.1.5.5,0,0,1,0,.12.55.55,0,0,1-.24.48,1,1,0,0,1-.62.17,1.64,1.64,0,0,1-.84-.25,2.57,2.57,0,0,1-.71-.65h0l-1.29,1A3.61,3.61,0,0,0,31.38,19Zm.84-2.89-.11.17.21-.34Z" style="fill:#08083d"/><path d="M38.33,15.49a1.39,1.39,0,0,1,1.28-.72,1.85,1.85,0,0,1,1.42.62,2.41,2.41,0,0,1,.63,1.73A2.38,2.38,0,0,1,41,18.86a1.86,1.86,0,0,1-1.41.63A1.43,1.43,0,0,1,38.42,19v2.54H37.33V14.89h.89Zm1.09,3a1.19,1.19,0,0,0,.4-.08,1,1,0,0,0,.37-.26,1.42,1.42,0,0,0,.37-1,1.47,1.47,0,0,0-.32-1,1,1,0,0,0-.77-.37,1.08,1.08,0,0,0-.75.27,1,1,0,0,0-.3.74v.8a.88.88,0,0,0,.3.7A1,1,0,0,0,39.42,18.5Zm5.29-3.73a2.32,2.32,0,0,1,.84.14,1.67,1.67,0,0,1,.69.44,2.42,2.42,0,0,1,.63,1.78,2.42,2.42,0,0,1-.63,1.77,2,2,0,0,1-1.53.59,2.1,2.1,0,0,1-1.55-.59,2.41,2.41,0,0,1-.63-1.77,2.4,2.4,0,0,1,.63-1.78A2.08,2.08,0,0,1,44.71,14.77Zm1.07,2.35a1.74,1.74,0,0,0-.27-1.06.92.92,0,0,0-.77-.36,1,1,0,0,0-.81.36,1.61,1.61,0,0,0-.31,1.06,1.71,1.71,0,0,0,.28,1.07,1,1,0,0,0,.77.35,1,1,0,0,0,.8-.35A1.59,1.59,0,0,0,45.78,17.12Zm4.91,2.13a2.87,2.87,0,0,1-1,.24,1.93,1.93,0,0,1-.62-.09,1.2,1.2,0,0,1-.88-1.28V15.61H47.6v-.72h.63V13.71h1.08v1.18h1.22v.72H49.31v2.47c0,.37.18.55.53.55a2.15,2.15,0,0,0,.69-.15ZM51.79,13h1.09v6.32H51.79Zm2.89,1.84h1.09v4.48H54.68Zm-.13-1.44a.59.59,0,0,1,.18-.46.65.65,0,0,1,.5-.18.63.63,0,0,1,.48.18.56.56,0,0,1,.19.46.6.6,0,0,1-.19.47.67.67,0,0,1-.48.17.69.69,0,0,1-.5-.17A.63.63,0,0,1,54.55,13.44ZM58,17.53a1.49,1.49,0,0,1,0-2.33,2,2,0,0,1,1.27-.43,2.41,2.41,0,0,1,1.19.26,1.21,1.21,0,0,1,.45-.84,1.36,1.36,0,0,1,.91-.33l-.05,1c-.53,0-.8.18-.82.53a1.35,1.35,0,0,1,.34.86,1.54,1.54,0,0,1-.16.75,1.44,1.44,0,0,1-.42.5,2.12,2.12,0,0,1-1.34.44,2.35,2.35,0,0,1-.82-.14.44.44,0,0,0-.37.44c0,.28.23.42.7.42h1.5c1,0,1.53.35,1.53,1.06a1.37,1.37,0,0,1-.19.7,1.77,1.77,0,0,1-.51.62,3,3,0,0,1-1.9.59,3.23,3.23,0,0,1-1.79-.45,1.26,1.26,0,0,1-.65-1.06.9.9,0,0,1,.25-.66,1.31,1.31,0,0,1,.67-.31,1,1,0,0,1-.54-.82.76.76,0,0,1,.2-.53A1.09,1.09,0,0,1,58,17.53Zm.83,1.93c-.58,0-.87.24-.87.65a.56.56,0,0,0,.36.5,1.79,1.79,0,0,0,.86.19,2.7,2.7,0,0,0,.78-.08,1.52,1.52,0,0,0,.48-.22.8.8,0,0,0,.41-.66.36.36,0,0,0-.12-.28.45.45,0,0,0-.33-.1Zm1.4-3.09a.87.87,0,0,0-.21-.61.76.76,0,0,0-.62-.24.85.85,0,1,0,0,1.69A.76.76,0,0,0,60,17,.88.88,0,0,0,60.23,16.37Zm3.82-.76a1.47,1.47,0,0,1,1.35-.84,1.54,1.54,0,0,1,1.3.54,2.27,2.27,0,0,1,.42,1.43v2.62H66V16.74a1,1,0,0,0-.24-.74.87.87,0,0,0-.67-.26.91.91,0,0,0-.74.39,1.93,1.93,0,0,0-.33,1.16v2.07H63V13h1.08Zm7.17,3.64a2.77,2.77,0,0,1-1,.24,1.93,1.93,0,0,1-.62-.09,1.2,1.2,0,0,1-.88-1.28V15.61h-.63v-.72h.63V13.71h1.08v1.18h1.22v.72H69.85v2.47c0,.37.18.55.53.55a2.15,2.15,0,0,0,.69-.15Zm2.11-3.76a1.39,1.39,0,0,1,1.29-.72,1.85,1.85,0,0,1,1.41.62,2.41,2.41,0,0,1,.63,1.73A2.38,2.38,0,0,1,76,18.86a1.85,1.85,0,0,1-1.4.63,1.43,1.43,0,0,1-1.2-.49v2.54H72.33V14.89h.9Zm1.09,3a1.19,1.19,0,0,0,.4-.08,1.08,1.08,0,0,0,.38-.26,1.45,1.45,0,0,0,.36-1,1.47,1.47,0,0,0-.32-1,1,1,0,0,0-.77-.37,1.08,1.08,0,0,0-.75.27,1,1,0,0,0-.3.74v.8a.88.88,0,0,0,.3.7A1,1,0,0,0,74.42,18.5Zm5-1.76a5.07,5.07,0,0,1,1.24.18v-.44a1,1,0,0,0-.2-.69.71.71,0,0,0-.61-.23,1.15,1.15,0,0,0-.66.17.56.56,0,0,0-.23.48H77.78a1.2,1.2,0,0,1,.53-1.1,2.82,2.82,0,0,1,1.51-.34,1.73,1.73,0,0,1,1.79,1,2.06,2.06,0,0,1,.13.78v2.85H80.8l-.09-.6a1.45,1.45,0,0,1-1.32.73A1.94,1.94,0,0,1,78,19.06a1.34,1.34,0,0,1-.44-1,1.09,1.09,0,0,1,.49-1A2.36,2.36,0,0,1,79.42,16.74Zm1.24.87a3.8,3.8,0,0,0-1-.15c-.59,0-.89.2-.89.59a.57.57,0,0,0,.2.43,1.14,1.14,0,0,0,1.39-.12A1.11,1.11,0,0,0,80.66,17.61Zm3.22-2.72L85,18.11l.94-3.22H87l-1.71,5.28a2.68,2.68,0,0,1-.66,1.15,1.37,1.37,0,0,1-1,.35,2.66,2.66,0,0,1-1.2-.3v-.95a1.81,1.81,0,0,0,1,.3.64.64,0,0,0,.52-.26,1.83,1.83,0,0,0,.34-.67l.14-.43-1.79-4.47Z" style="fill:#08083d"/><line x1="26.5" y1="10" x2="26.5" y2="22" style="fill:none;stroke:#e7e7e7;stroke-linecap:round;stroke-miterlimit:10;stroke-width:0.5px"/></svg>