<svg xmlns="http://www.w3.org/2000/svg" width="87" height="32" viewBox="0 0 87 32"><title>cobrand4</title><path d="M74.74,27.44a.66.66,0,0,0,.66.65.65.65,0,0,0,.65-.65,1.84,1.84,0,0,1,1.84-1.84.66.66,0,1,0,0-1.31,3.15,3.15,0,0,0-3.15,3.15M72.89,25a1.84,1.84,0,1,1-1.83-1.84A1.83,1.83,0,0,1,72.89,25m1.31,0a3.15,3.15,0,1,0-3.14,3.14A3.15,3.15,0,0,0,74.2,25m9.14-2.1a.66.66,0,1,0-1.06-.77l-1,1.42a.27.27,0,0,1-.43,0l-1-1.42a.66.66,0,0,0-.54-.28H75.4a.66.66,0,0,0-.66.65v1.29a.67.67,0,0,0,.64.68.65.65,0,0,0,.67-.65v-.4a.27.27,0,0,1,.27-.26h2.53a.27.27,0,0,1,.22.11L80,24.49a.8.8,0,0,1,0,.91L78.81,27a.66.66,0,0,0,.13.92.64.64,0,0,0,.93-.15l1-1.41a.26.26,0,0,1,.43,0l1,1.39a.66.66,0,1,0,1.09-.73L82.19,25.4a.8.8,0,0,1,0-.91Z" style="fill:#ff9e1b"/><path d="M59.78,21.53A3.94,3.94,0,1,0,65.17,23a3.94,3.94,0,0,0-5.39-1.44M64.34,25a.58.58,0,0,1-.58.57h-.43a2.16,2.16,0,0,0-1.87,1.08l-.21.37a.58.58,0,0,1-1-.57l.22-.38a2.17,2.17,0,0,0,0-2.15l-.21-.36a.59.59,0,0,1,.19-.8.59.59,0,0,1,.8.21l.21.38a2.17,2.17,0,0,0,1.87,1.07h.43a.58.58,0,0,1,.58.58" style="fill:#ff9e1b"/><path d="M35.92,23.4a.21.21,0,0,1,0-.12.16.16,0,0,1,.12,0h.7a1.21,1.21,0,0,1,.38.06.92.92,0,0,1,.3.18.77.77,0,0,1,.19.28.87.87,0,0,1,.07.37.9.9,0,0,1-.07.37.81.81,0,0,1-.19.29.92.92,0,0,1-.3.18,1.22,1.22,0,0,1-.38.07h-.53v.86a.17.17,0,0,1,0,.12.21.21,0,0,1-.12,0A.18.18,0,0,1,36,26a.17.17,0,0,1,0-.12Zm.33.12v1.23h.51a.64.64,0,0,0,.46-.17.61.61,0,0,0,.17-.45.6.6,0,0,0-.17-.44.64.64,0,0,0-.46-.17Z" style="fill:#3c3c3b"/><path d="M39.7,25.27a.9.9,0,0,1-.06.34.72.72,0,0,1-.16.25.6.6,0,0,1-.25.16.87.87,0,0,1-.32.06.88.88,0,0,1-.33-.06.67.67,0,0,1-.25-.16.72.72,0,0,1-.16-.25.9.9,0,0,1-.05-.34v-.55a.93.93,0,0,1,.05-.34.72.72,0,0,1,.16-.25.67.67,0,0,1,.25-.16.88.88,0,0,1,.33-.06.87.87,0,0,1,.32.06.6.6,0,0,1,.25.16.72.72,0,0,1,.16.25.93.93,0,0,1,.06.34Zm-1.27,0a.55.55,0,0,0,.12.37.45.45,0,0,0,.36.15.43.43,0,0,0,.35-.15.51.51,0,0,0,.13-.37V24.7a.51.51,0,0,0-.13-.37.43.43,0,0,0-.35-.15.45.45,0,0,0-.36.15.55.55,0,0,0-.12.37Z" style="fill:#3c3c3b"/><path d="M42,25.93a.17.17,0,0,1-.17.13.17.17,0,0,1-.16-.13l-.4-1.45-.38,1.45a.18.18,0,0,1-.17.13.18.18,0,0,1-.18-.13l-.5-1.78v0a.15.15,0,0,1,.15-.17.12.12,0,0,1,.1,0,.15.15,0,0,1,.06.09l.38,1.5.38-1.49a.21.21,0,0,1,.06-.1.21.21,0,0,1,.11,0,.25.25,0,0,1,.11,0,.21.21,0,0,1,.06.1l.38,1.49.39-1.51s0-.06.05-.09a.12.12,0,0,1,.09,0,.18.18,0,0,1,.1,0,.19.19,0,0,1,0,.1.34.34,0,0,1,0,.09Z" style="fill:#3c3c3b"/><path d="M44.33,25.32a.13.13,0,0,1,.11.05.12.12,0,0,1,0,.12.63.63,0,0,1-.23.43.82.82,0,0,1-.53.16,1.07,1.07,0,0,1-.32,0,.72.72,0,0,1-.25-.16.78.78,0,0,1-.16-.24.88.88,0,0,1-.06-.33v-.58a.93.93,0,0,1,.06-.34.72.72,0,0,1,.16-.25.6.6,0,0,1,.25-.16A.88.88,0,0,1,44,24a.63.63,0,0,1,.24.16.72.72,0,0,1,.16.25.93.93,0,0,1,0,.34v.16a.14.14,0,0,1-.15.16h-1.1v.29a.48.48,0,0,0,.13.35.43.43,0,0,0,.36.14.48.48,0,0,0,.35-.11.49.49,0,0,0,.13-.27C44.22,25.36,44.26,25.32,44.33,25.32Zm-1.1-.53h1v-.1a.57.57,0,0,0-.12-.37.43.43,0,0,0-.35-.15.43.43,0,0,0-.36.15.52.52,0,0,0-.13.37Z" style="fill:#3c3c3b"/><path d="M45.3,24.22a.58.58,0,0,1,.22-.22.68.68,0,0,1,.31-.08.14.14,0,0,1,.11,0,.13.13,0,0,1,0,.1.14.14,0,0,1,0,.11.13.13,0,0,1-.09,0,.52.52,0,0,0-.39.14.53.53,0,0,0-.14.37v1.19a.15.15,0,0,1,0,.11.16.16,0,0,1-.27-.11V24.07a.13.13,0,0,1,0-.1.13.13,0,0,1,.09,0,.14.14,0,0,1,.09,0,.09.09,0,0,1,0,.08Z" style="fill:#3c3c3b"/><path d="M47.66,25.32a.14.14,0,0,1,.11.05.12.12,0,0,1,0,.12.63.63,0,0,1-.23.43.84.84,0,0,1-.53.16,1,1,0,0,1-.32,0,.72.72,0,0,1-.25-.16.63.63,0,0,1-.16-.24.88.88,0,0,1-.06-.33v-.58a.93.93,0,0,1,.06-.34.69.69,0,0,1,.41-.41.79.79,0,0,1,.32-.06.75.75,0,0,1,.31.06.6.6,0,0,1,.25.16.72.72,0,0,1,.16.25,1.21,1.21,0,0,1,.05.34v.16a.14.14,0,0,1-.15.16h-1.1v.29a.48.48,0,0,0,.13.35.43.43,0,0,0,.36.14.44.44,0,0,0,.34-.11.45.45,0,0,0,.14-.27C47.55,25.36,47.59,25.32,47.66,25.32Zm-1.1-.53h1v-.1a.57.57,0,0,0-.12-.37.45.45,0,0,0-.36-.15.43.43,0,0,0-.35.15.52.52,0,0,0-.13.37Z" style="fill:#3c3c3b"/><path d="M49.85,25.92a.12.12,0,0,1-.13.14l-.08,0a.2.2,0,0,1-.06-.09l0-.15a.55.55,0,0,1-.23.2.73.73,0,0,1-.33.08.66.66,0,0,1-.53-.21.79.79,0,0,1-.19-.56v-.63a.79.79,0,0,1,.19-.56.66.66,0,0,1,.53-.21.64.64,0,0,1,.31.07.58.58,0,0,1,.23.18v-.87a.16.16,0,0,1,0-.12.18.18,0,0,1,.11,0,.14.14,0,0,1,.16.16Zm-.8-.12a.49.49,0,0,0,.36-.14.52.52,0,0,0,.13-.37V24.7a.52.52,0,0,0-.13-.36.46.46,0,0,0-.36-.15.41.41,0,0,0-.35.14.53.53,0,0,0-.11.34v.65a.53.53,0,0,0,.11.34A.41.41,0,0,0,49.05,25.8Z" style="fill:#3c3c3b"/><path d="M51.37,23.29a.15.15,0,0,1,0-.11.14.14,0,0,1,.11,0,.12.12,0,0,1,.11,0,.16.16,0,0,1,0,.11v.87a.58.58,0,0,1,.23-.18.62.62,0,0,1,.31-.07.69.69,0,0,1,.53.21.84.84,0,0,1,.19.56v.63a.84.84,0,0,1-.19.56.69.69,0,0,1-.53.21.67.67,0,0,1-.33-.08.52.52,0,0,1-.24-.2l0,.15a.13.13,0,0,1,0,.09l-.08,0c-.09,0-.13,0-.13-.14Zm.8,2.51a.4.4,0,0,0,.34-.14.49.49,0,0,0,.12-.34v-.65a.49.49,0,0,0-.12-.34.4.4,0,0,0-.34-.14.43.43,0,0,0-.36.15.52.52,0,0,0-.13.36v.59a.52.52,0,0,0,.13.37A.46.46,0,0,0,52.17,25.8Z" style="fill:#3c3c3b"/><path d="M54,26.75a.24.24,0,0,1-.06.08.19.19,0,0,1-.08,0,.11.11,0,0,1-.11-.06.12.12,0,0,1,0-.13l.23-.62-.69-1.9a.18.18,0,0,1,0-.14.13.13,0,0,1,.13-.08.14.14,0,0,1,.15.11l.54,1.58L54.66,24a.14.14,0,0,1,.14-.11.15.15,0,0,1,.13.07.14.14,0,0,1,0,.14Z" style="fill:#3c3c3b"/><path d="M4.22,17.44A6.44,6.44,0,0,1,2,17,6,6,0,0,1,0,15.8L1.48,14a5.53,5.53,0,0,0,1.34.85,3.49,3.49,0,0,0,1.47.34,1.9,1.9,0,0,0,1.18-.3,1,1,0,0,0,.4-.8.85.85,0,0,0-.12-.46,1,1,0,0,0-.33-.33,2.76,2.76,0,0,0-.52-.28l-.67-.29-1.48-.63a5.35,5.35,0,0,1-.85-.45A4.09,4.09,0,0,1,1.17,11a3.27,3.27,0,0,1-.51-.87A3.15,3.15,0,0,1,.47,9,3,3,0,0,1,.76,7.73,3.16,3.16,0,0,1,1.6,6.65a4,4,0,0,1,1.27-.74,5.08,5.08,0,0,1,1.64-.26,5.15,5.15,0,0,1,2,.39A4.86,4.86,0,0,1,8.18,7.15L6.87,8.77a4.69,4.69,0,0,0-1.12-.66,3.08,3.08,0,0,0-1.24-.24,1.8,1.8,0,0,0-1.06.28.83.83,0,0,0-.38.75.84.84,0,0,0,.12.45,1.45,1.45,0,0,0,.36.33c.17.09.35.19.56.28s.44.17.68.28l1.47.59A3.94,3.94,0,0,1,7.9,12a3,3,0,0,1,.61,1.94,3.21,3.21,0,0,1-.3,1.36,3.09,3.09,0,0,1-.84,1.11A4.14,4.14,0,0,1,6,17.16,5.37,5.37,0,0,1,4.22,17.44Zm6.22-.21V5.86h3.9a8.12,8.12,0,0,1,1.76.19,3.78,3.78,0,0,1,1.43.61,2.83,2.83,0,0,1,1,1.14,3.59,3.59,0,0,1,.37,1.72,3.74,3.74,0,0,1-.37,1.73,3.16,3.16,0,0,1-1,1.2,3.89,3.89,0,0,1-1.41.7,6.25,6.25,0,0,1-1.71.23H13v3.85ZM13,11.34h1.26c1.39,0,2.09-.61,2.09-1.82a1.38,1.38,0,0,0-.56-1.25,2.87,2.87,0,0,0-1.6-.37H13Zm12.45,6.1a5.36,5.36,0,0,1-2.11-.4,4.67,4.67,0,0,1-1.63-1.19A5.62,5.62,0,0,1,20.65,14a8,8,0,0,1-.37-2.5A7.78,7.78,0,0,1,20.65,9a5.28,5.28,0,0,1,1.06-1.83,4.54,4.54,0,0,1,1.63-1.14,5.55,5.55,0,0,1,2.11-.4,5.44,5.44,0,0,1,2.09.4,4.49,4.49,0,0,1,1.64,1.14,5,5,0,0,1,1,1.85,7.2,7.2,0,0,1,.39,2.45,7.46,7.46,0,0,1-.39,2.5,5.26,5.26,0,0,1-1,1.86A4.62,4.62,0,0,1,27.54,17,5.26,5.26,0,0,1,25.45,17.44Zm0-2.21a2.12,2.12,0,0,0,1.84-1A4.77,4.77,0,0,0,28,11.49a4.5,4.5,0,0,0-.68-2.66,2.25,2.25,0,0,0-3.69,0,4.5,4.5,0,0,0-.68,2.66,4.77,4.77,0,0,0,.68,2.74A2.14,2.14,0,0,0,25.45,15.23Zm9,2V8H31.35V5.86h8.82V8H37.05v9.21Zm7.47,0V5.86h2.57v9.21H49v2.16Zm9,0V5.86h2.56V17.23Zm10.26.21A6.34,6.34,0,0,1,59,17.07,4.88,4.88,0,0,1,57.28,16a5.19,5.19,0,0,1-1.19-1.82,7,7,0,0,1-.42-2.52,6.73,6.73,0,0,1,.44-2.51,5.47,5.47,0,0,1,1.18-1.89,5.4,5.4,0,0,1,1.78-1.17,6,6,0,0,1,2.15-.4,4.51,4.51,0,0,1,2.12.46,5.32,5.32,0,0,1,1.45,1L63.45,8.77a4.81,4.81,0,0,0-.93-.64,2.48,2.48,0,0,0-1.22-.26,2.79,2.79,0,0,0-1.22.26,2.69,2.69,0,0,0-.94.71A3.63,3.63,0,0,0,58.51,10a5.26,5.26,0,0,0-.21,1.54,4.3,4.3,0,0,0,.79,2.74,3,3,0,0,0,2.41,1,2.59,2.59,0,0,0,.68-.09,1.51,1.51,0,0,0,.54-.26v-2H60.83V10.83H65v5.23a4.69,4.69,0,0,1-1.57,1A5.61,5.61,0,0,1,61.23,17.44Zm6.1-.21V5.86H69.9v4.38h3.92V5.86H76.4V17.23H73.82V12.49H69.9v4.74Zm14,0V8H78.18V5.86H87V8H83.88v9.21Z" style="fill:#001eb6"/></svg>