<svg xmlns="http://www.w3.org/2000/svg" width="87" height="32" viewBox="0 0 87 32"><title>cobrand5</title><path d="M70.39,27a1,1,0,0,0,2,0,2.86,2.86,0,0,1,2.86-2.86,1,1,0,0,0,0-2,4.9,4.9,0,0,0-4.9,4.9M67.5,23.15a2.86,2.86,0,1,1-2.86-2.86,2.86,2.86,0,0,1,2.86,2.86m2,0a4.91,4.91,0,1,0-4.91,4.9,4.91,4.91,0,0,0,4.91-4.9m14.24-3.26a1,1,0,0,0-.2-1.44,1,1,0,0,0-1.45.23l-1.55,2.21a.41.41,0,0,1-.67,0l-1.54-2.21a1,1,0,0,0-.84-.44H71.41a1,1,0,0,0-1,1v2a1,1,0,0,0,1,1.06,1,1,0,0,0,1.05-1V20.7a.41.41,0,0,1,.41-.41h4a.41.41,0,0,1,.34.17l1.39,2a1.25,1.25,0,0,1,0,1.41l-1.79,2.56a1,1,0,0,0,.2,1.44,1,1,0,0,0,1.45-.23l1.54-2.21a.41.41,0,0,1,.67,0l1.53,2.17a1.05,1.05,0,0,0,1.42.31,1,1,0,0,0,.28-1.44L82,23.85a1.22,1.22,0,0,1,0-1.41Z" style="fill:#ff9e1b"/><path d="M47.07,17.82a6.15,6.15,0,1,0,8.4,2.25,6.16,6.16,0,0,0-8.4-2.25m7.1,5.33a.89.89,0,0,1-.89.89H52.6a3.34,3.34,0,0,0-2.9,1.68l-.34.59a.9.9,0,0,1-1.22.32.89.89,0,0,1-.33-1.22l.34-.59a3.34,3.34,0,0,0,0-3.35l-.33-.56a.92.92,0,0,1,.3-1.24.9.9,0,0,1,1.24.32l.34.59a3.33,3.33,0,0,0,2.9,1.67h.68a.89.89,0,0,1,.89.9" style="fill:#ff9e1b"/><path d="M4.23,20.08a.28.28,0,0,1,.3-.3H5.84a2,2,0,0,1,.71.12,1.63,1.63,0,0,1,.57.34,1.47,1.47,0,0,1,.36.52,1.8,1.8,0,0,1,0,1.39,1.55,1.55,0,0,1-.36.54,1.65,1.65,0,0,1-.57.35,2,2,0,0,1-.71.12h-1v1.62a.28.28,0,0,1-.3.3.29.29,0,0,1-.31-.3Zm.61.24v2.3h1a1.19,1.19,0,0,0,.87-2,1.21,1.21,0,0,0-.87-.3Z" style="fill:#3c3c3b"/><path d="M11.33,23.6a1.81,1.81,0,0,1-.11.63,1.33,1.33,0,0,1-.31.48,1.35,1.35,0,0,1-.47.3,1.72,1.72,0,0,1-1.21,0,1.35,1.35,0,0,1-.47-.3,1.31,1.31,0,0,1-.3-.48,1.81,1.81,0,0,1-.11-.63v-1a1.83,1.83,0,0,1,.11-.64,1.5,1.5,0,0,1,.3-.48,1.35,1.35,0,0,1,.47-.3,1.72,1.72,0,0,1,1.21,0,1.35,1.35,0,0,1,.47.3,1.52,1.52,0,0,1,.31.48,1.83,1.83,0,0,1,.11.64Zm-2.39,0a1,1,0,0,0,.23.7.85.85,0,0,0,.67.27.85.85,0,0,0,.67-.27,1.09,1.09,0,0,0,.23-.7V22.52a1,1,0,0,0-.23-.69.82.82,0,0,0-.67-.28.82.82,0,0,0-.67.28,1,1,0,0,0-.23.69Z" style="fill:#3c3c3b"/><path d="M15.73,24.83a.33.33,0,0,1-.32.25.31.31,0,0,1-.31-.25l-.74-2.71-.73,2.71a.32.32,0,0,1-.32.25.34.34,0,0,1-.33-.25l-.93-3.34a.51.51,0,0,1,0-.09.32.32,0,0,1,.09-.23.25.25,0,0,1,.2-.09.35.35,0,0,1,.2.07.4.4,0,0,1,.1.18l.72,2.81.71-2.8a.42.42,0,0,1,.11-.18.32.32,0,0,1,.21-.08.32.32,0,0,1,.2.08.36.36,0,0,1,.12.18l.71,2.79.73-2.83a.24.24,0,0,1,.09-.15.27.27,0,0,1,.18-.07.27.27,0,0,1,.19.08.31.31,0,0,1,.09.19.53.53,0,0,1,0,.16Z" style="fill:#3c3c3b"/><path d="M20,23.69a.24.24,0,0,1,.2.09.3.3,0,0,1,.06.23,1.17,1.17,0,0,1-.44.81,1.58,1.58,0,0,1-1,.3,1.89,1.89,0,0,1-.6-.1,1.39,1.39,0,0,1-.47-.29,1.54,1.54,0,0,1-.31-.47,1.61,1.61,0,0,1-.1-.6V22.57a1.83,1.83,0,0,1,.1-.64,1.72,1.72,0,0,1,.31-.48,1.27,1.27,0,0,1,.47-.3,1.64,1.64,0,0,1,.6-.11,1.59,1.59,0,0,1,.59.11,1.31,1.31,0,0,1,.46.3,1.5,1.5,0,0,1,.3.48,1.83,1.83,0,0,1,.1.64v.3a.28.28,0,0,1-.07.21.29.29,0,0,1-.22.08H18v.56a.92.92,0,0,0,.24.65.85.85,0,0,0,.68.27.84.84,0,0,0,.64-.22.79.79,0,0,0,.26-.51A.23.23,0,0,1,20,23.69ZM18,22.7h1.8v-.19a1.12,1.12,0,0,0-.23-.71.82.82,0,0,0-.66-.27.87.87,0,0,0-.68.27,1.12,1.12,0,0,0-.23.71Z" style="fill:#3c3c3b"/><path d="M21.85,21.62a1.12,1.12,0,0,1,1-.56.27.27,0,0,1,.27.27.27.27,0,0,1-.07.2.25.25,0,0,1-.18.07,1,1,0,0,0-.72.27,1,1,0,0,0-.26.7v2.22a.32.32,0,0,1-.08.21.29.29,0,0,1-.21.08.33.33,0,0,1-.22-.08.32.32,0,0,1-.08-.21V21.35a.29.29,0,0,1,.07-.19.22.22,0,0,1,.18-.08.3.3,0,0,1,.16.05.22.22,0,0,1,.08.16Z" style="fill:#3c3c3b"/><path d="M26.28,23.69a.24.24,0,0,1,.2.09.3.3,0,0,1,.06.23,1.17,1.17,0,0,1-.44.81,1.58,1.58,0,0,1-1,.3,2,2,0,0,1-.61-.1,1.44,1.44,0,0,1-.46-.29,1.38,1.38,0,0,1-.31-.47,1.6,1.6,0,0,1-.11-.6V22.57a1.83,1.83,0,0,1,.11-.64,1.52,1.52,0,0,1,.31-.48,1.31,1.31,0,0,1,.46-.3,1.7,1.7,0,0,1,.61-.11,1.59,1.59,0,0,1,.59.11,1.31,1.31,0,0,1,.46.3,1.5,1.5,0,0,1,.3.48,2.1,2.1,0,0,1,.1.64v.3a.27.27,0,0,1-.29.29H24.21v.56a.92.92,0,0,0,.24.65A.91.91,0,0,0,26,23.91.23.23,0,0,1,26.28,23.69Zm-2.07-1H26v-.19a1.12,1.12,0,0,0-.23-.71.84.84,0,0,0-.66-.27.85.85,0,0,0-.68.27,1.12,1.12,0,0,0-.23.71Z" style="fill:#3c3c3b"/><path d="M30.38,24.81q0,.27-.24.27A.3.3,0,0,1,30,25a.27.27,0,0,1-.09-.16l0-.28a1.41,1.41,0,0,1-.45.39,1.38,1.38,0,0,1-.62.14,1.27,1.27,0,0,1-1-.39,1.53,1.53,0,0,1-.36-1.06V22.49a1.49,1.49,0,0,1,.36-1,1.27,1.27,0,0,1,1-.4,1.38,1.38,0,0,1,.59.13,1.21,1.21,0,0,1,.43.35V19.87a.3.3,0,0,1,.5-.21.25.25,0,0,1,.08.21Zm-1.5-.21a.89.89,0,0,0,.68-.28,1,1,0,0,0,.24-.68V22.53a1,1,0,0,0-.24-.69.88.88,0,0,0-.68-.27.78.78,0,0,0-.65.26,1,1,0,0,0-.21.64v1.22a1,1,0,0,0,.21.65A.81.81,0,0,0,28.88,24.6Z" style="fill:#3c3c3b"/><path d="M33.23,19.88a.29.29,0,0,1,.08-.21.31.31,0,0,1,.22-.08.32.32,0,0,1,.21.08.29.29,0,0,1,.08.21v1.64a1.13,1.13,0,0,1,.43-.35,1.34,1.34,0,0,1,.58-.13,1.29,1.29,0,0,1,1,.4,1.53,1.53,0,0,1,.35,1v1.18a1.57,1.57,0,0,1-.35,1.06,1.29,1.29,0,0,1-1,.39,1.38,1.38,0,0,1-.62-.14,1.28,1.28,0,0,1-.44-.39l-.05.28a.27.27,0,0,1-.09.16.25.25,0,0,1-.15,0c-.17,0-.25-.09-.25-.27Zm1.51,4.72a.79.79,0,0,0,.64-.26,1,1,0,0,0,.22-.65V22.47a.92.92,0,0,0-.22-.64.76.76,0,0,0-.64-.26.87.87,0,0,0-.68.27,1,1,0,0,0-.24.69v1.11a1,1,0,0,0,.24.68A.87.87,0,0,0,34.74,24.6Z" style="fill:#3c3c3b"/><path d="M38.21,26.37a.4.4,0,0,1-.1.15.3.3,0,0,1-.16.05.24.24,0,0,1-.21-.1.29.29,0,0,1,0-.24l.44-1.18-1.29-3.56a.31.31,0,0,1,0-.26.23.23,0,0,1,.24-.15.28.28,0,0,1,.29.21l1,3,1-3a.26.26,0,0,1,.26-.21.27.27,0,0,1,.24.13.29.29,0,0,1,0,.26Z" style="fill:#3c3c3b"/><path d="M4.2,12.9A6.54,6.54,0,0,1,2,12.49a6,6,0,0,1-2-1.23L1.47,9.49a5.38,5.38,0,0,0,1.34.86,3.62,3.62,0,0,0,1.46.33,1.93,1.93,0,0,0,1.19-.3.92.92,0,0,0,.4-.8.84.84,0,0,0-.12-.45.87.87,0,0,0-.33-.33,2,2,0,0,0-.53-.28c-.19-.1-.42-.19-.66-.3L2.74,7.59a4.17,4.17,0,0,1-.86-.45,4.47,4.47,0,0,1-.73-.65,2.87,2.87,0,0,1-.5-.87,3.11,3.11,0,0,1-.2-1.13,2.93,2.93,0,0,1,.3-1.31A3.16,3.16,0,0,1,1.59,2.1a3.88,3.88,0,0,1,1.27-.73A4.82,4.82,0,0,1,4.5,1.1a5.14,5.14,0,0,1,2,.39A5,5,0,0,1,8.16,2.6L6.85,4.23a5,5,0,0,0-1.11-.67A3.12,3.12,0,0,0,4.5,3.32a1.78,1.78,0,0,0-1.06.28.84.84,0,0,0-.39.75.84.84,0,0,0,.12.45,1.71,1.71,0,0,0,.37.33,4.17,4.17,0,0,0,.56.28l.68.28,1.46.59A3.89,3.89,0,0,1,7.88,7.44a2.88,2.88,0,0,1,.61,1.93,3.17,3.17,0,0,1-.29,1.36,3.34,3.34,0,0,1-.84,1.12A4.45,4.45,0,0,1,6,12.62,5.7,5.7,0,0,1,4.2,12.9Zm6.22-.21V1.31h3.91a7.53,7.53,0,0,1,1.76.2,3.63,3.63,0,0,1,1.43.61,2.8,2.8,0,0,1,1,1.13A3.63,3.63,0,0,1,18.85,5a3.7,3.7,0,0,1-.37,1.72,3.27,3.27,0,0,1-1,1.21,4.13,4.13,0,0,1-1.41.69,5.94,5.94,0,0,1-1.71.23H13v3.86ZM13,6.79h1.25c1.4,0,2.1-.6,2.1-1.81a1.4,1.4,0,0,0-.56-1.26,3,3,0,0,0-1.61-.37H13ZM25.44,12.9a5.33,5.33,0,0,1-2.11-.41,4.77,4.77,0,0,1-1.63-1.18,5.67,5.67,0,0,1-1.06-1.87A8,8,0,0,1,20.27,7a7.84,7.84,0,0,1,.37-2.48A5.28,5.28,0,0,1,21.7,2.64a4.39,4.39,0,0,1,1.63-1.13,5.33,5.33,0,0,1,2.11-.41,5.27,5.27,0,0,1,2.09.41,4.35,4.35,0,0,1,1.64,1.13,5.13,5.13,0,0,1,1,1.85A7.22,7.22,0,0,1,30.6,7a7.39,7.39,0,0,1-.39,2.49,5.3,5.3,0,0,1-1,1.87,4.72,4.72,0,0,1-1.64,1.18A5.27,5.27,0,0,1,25.44,12.9Zm0-2.22a2.12,2.12,0,0,0,1.84-1A4.81,4.81,0,0,0,28,7a4.51,4.51,0,0,0-.68-2.67,2.25,2.25,0,0,0-3.69,0A4.51,4.51,0,0,0,22.91,7a4.81,4.81,0,0,0,.68,2.74A2.13,2.13,0,0,0,25.44,10.68Zm9,2V3.48H31.34V1.31h8.82V3.48H37v9.21Zm7.47,0V1.31H44.5v9.21H49v2.17Zm9,0V1.31h2.57V12.69Zm10.27.21a6.64,6.64,0,0,1-2.2-.37,5.14,5.14,0,0,1-1.76-1.12A5.21,5.21,0,0,1,56.09,9.6a7.06,7.06,0,0,1-.42-2.53,6.77,6.77,0,0,1,.43-2.51,5.59,5.59,0,0,1,1.19-1.89,5,5,0,0,1,1.78-1.16,5.7,5.7,0,0,1,2.14-.41,4.65,4.65,0,0,1,2.13.46,5.27,5.27,0,0,1,1.45,1L63.45,4.23a5.2,5.2,0,0,0-.93-.65,2.59,2.59,0,0,0-1.22-.26,2.9,2.9,0,0,0-1.22.26,2.52,2.52,0,0,0-.94.72,3.26,3.26,0,0,0-.63,1.15A5.15,5.15,0,0,0,58.3,7a4.28,4.28,0,0,0,.78,2.74,3,3,0,0,0,2.41,1,2.59,2.59,0,0,0,.68-.09,1.36,1.36,0,0,0,.54-.26V8.38H60.83V6.28H65v5.24a4.89,4.89,0,0,1-1.57,1A5.65,5.65,0,0,1,61.23,12.9Zm6.1-.21V1.31h2.56V5.69h3.93V1.31H76.4V12.69H73.82V7.94H69.89v4.75Zm14,0V3.48H78.17V1.31H87V3.48H83.88v9.21Z" style="fill:#001eb6"/></svg>