<svg xmlns="http://www.w3.org/2000/svg" width="87" height="32" viewBox="0 0 87 32"><title>cobrand3</title><path d="M9.66,19.72a.93.93,0,1,0,1.85,0,2.59,2.59,0,0,1,2.59-2.59.93.93,0,1,0,0-1.85,4.44,4.44,0,0,0-4.44,4.44M7,16.2a2.6,2.6,0,1,1-2.59-2.59A2.59,2.59,0,0,1,7,16.2m1.86,0a4.45,4.45,0,1,0-4.45,4.45A4.46,4.46,0,0,0,8.9,16.2m12.91-3a1,1,0,0,0-.18-1.3.93.93,0,0,0-1.32.21l-1.4,2a.37.37,0,0,1-.61,0l-1.4-2a.92.92,0,0,0-.76-.4H10.58a.93.93,0,0,0-.92.93V14.5a1,1,0,0,0,.89,1,.92.92,0,0,0,1-.93V14a.36.36,0,0,1,.37-.37h3.59a.37.37,0,0,1,.3.16L17,15.56a1.11,1.11,0,0,1,0,1.28l-1.62,2.32a1,1,0,0,0,.18,1.31.93.93,0,0,0,1.31-.22l1.4-2a.37.37,0,0,1,.61,0l1.38,2a1,1,0,0,0,1.29.28.93.93,0,0,0,.25-1.31l-1.64-2.35a1.11,1.11,0,0,1,0-1.28Z" style="fill:#ff9e1b"/><path d="M32.18,20h0a3.79,3.79,0,0,0,1.55.35A4,4,0,0,0,35,20.18a3.16,3.16,0,0,0,1-.59h0a2.91,2.91,0,0,0,.66-.9,2.71,2.71,0,0,0,.23-1.1,2.24,2.24,0,0,0-.29-1.21,2.53,2.53,0,0,0-.87-.85h0l-.67-.41-.66-.41,0-.05h0a.16.16,0,0,1,.07-.14h0s.1-.08.3-.08a.7.7,0,0,1,.42.12h0a2.82,2.82,0,0,1,.5.4l.27.27.27-.26,1.11-1,.27-.25-.23-.28a3.4,3.4,0,0,0-1.16-.92,3,3,0,0,0-1.39-.35,3.18,3.18,0,0,0-1.19.22,2.77,2.77,0,0,0-1,.57,2.71,2.71,0,0,0-.66.85,2.42,2.42,0,0,0-.25,1.09,2.34,2.34,0,0,0,.34,1.32h0a3.19,3.19,0,0,0,.9.85h0l.62.39h0l.59.38h0l0,0h0v0a.15.15,0,0,1-.07.15h0a.53.53,0,0,1-.37.09,1.16,1.16,0,0,1-.62-.18,2,2,0,0,1-.58-.54l-.24-.32-.32.25-1.27,1-.3.24.23.3A3.78,3.78,0,0,0,32.18,20Z" style="fill:#fff"/><path d="M33.73,20.78A4.27,4.27,0,0,1,32,20.4h0l.17-.36L32,20.4a4.17,4.17,0,0,1-1.55-1.32L30,18.47l2.15-1.7a2.88,2.88,0,0,1-.32-.39h0a2.78,2.78,0,0,1-.41-1.54,2.72,2.72,0,0,1,.3-1.26,3.09,3.09,0,0,1,.75-1A3.18,3.18,0,0,1,33.54,12a3.6,3.6,0,0,1,1.32-.24,3.31,3.31,0,0,1,1.56.39,3.94,3.94,0,0,1,1.29,1l.47.56-1.86,1.75a2.63,2.63,0,0,1,.68.75,2.68,2.68,0,0,1,.34,1.41,3,3,0,0,1-.27,1.27,3.37,3.37,0,0,1-.75,1h0a3.75,3.75,0,0,1-1.14.66A4.39,4.39,0,0,1,33.73,20.78Zm-1.39-1.09a3.57,3.57,0,0,0,1.39.31,3.3,3.3,0,0,0,1.17-.19,2.84,2.84,0,0,0,.89-.51,2.26,2.26,0,0,0,.77-1.71,2,2,0,0,0-.23-1h0a2,2,0,0,0-.74-.71l-.67-.42L34.26,15l0,0a.45.45,0,0,1-.15-.16l0,0,0-.07v0a.13.13,0,0,1,0-.06.59.59,0,0,1,.19-.43h0a.78.78,0,0,1,.58-.19,1.11,1.11,0,0,1,.63.18h0a2.9,2.9,0,0,1,.56.46h0l1.12-1.05h0a3.22,3.22,0,0,0-1-.82h0a2.61,2.61,0,0,0-1.21-.3,3.05,3.05,0,0,0-1,.19,2.56,2.56,0,0,0-.83.5h0a2.37,2.37,0,0,0-.56.73,2,2,0,0,0-.21.91,1.93,1.93,0,0,0,.28,1.1,2.48,2.48,0,0,0,.79.75h0l.62.39.6.39h0a.55.55,0,0,1,.17.17.42.42,0,0,1,0,.1.49.49,0,0,1,0,.12.56.56,0,0,1-.23.47,1,1,0,0,1-.61.16,1.62,1.62,0,0,1-.83-.24,2.74,2.74,0,0,1-.69-.63h0l-1.27,1a3.51,3.51,0,0,0,1.26,1.08Zm.82-2.85-.1.17.21-.33Z" style="fill:#08083d"/><path d="M39.17,16.22a1.35,1.35,0,0,1,1.26-.72,1.84,1.84,0,0,1,1.39.62,2.37,2.37,0,0,1,.62,1.7,2.38,2.38,0,0,1-.62,1.71,1.84,1.84,0,0,1-1.39.61,1.39,1.39,0,0,1-1.17-.47v2.49H38.19V15.62h.88Zm1.07,3a1.09,1.09,0,0,0,.39-.08,1,1,0,0,0,.37-.26,1.4,1.4,0,0,0,.36-1,1.51,1.51,0,0,0-.31-1,1,1,0,0,0-.76-.36,1.05,1.05,0,0,0-.74.27,1,1,0,0,0-.29.73v.79a.84.84,0,0,0,.29.68A1,1,0,0,0,40.24,19.18Zm5.2-3.68a2.31,2.31,0,0,1,.83.15,1.73,1.73,0,0,1,.67.42,2.44,2.44,0,0,1,.62,1.76,2.42,2.42,0,0,1-.62,1.74,2,2,0,0,1-1.5.57,2.06,2.06,0,0,1-1.52-.57,2.35,2.35,0,0,1-.63-1.74,2.38,2.38,0,0,1,.63-1.76A2,2,0,0,1,45.44,15.5Zm1.06,2.32a1.68,1.68,0,0,0-.28-1,.88.88,0,0,0-.76-.35,1,1,0,0,0-.78.35,1.5,1.5,0,0,0-.31,1,1.73,1.73,0,0,0,.27,1.05.93.93,0,0,0,.76.34,1,1,0,0,0,.79-.34A1.6,1.6,0,0,0,46.5,17.82Zm4.81,2.09a2.67,2.67,0,0,1-.94.23,1.92,1.92,0,0,1-.61-.08,1.31,1.31,0,0,1-.45-.24,1.29,1.29,0,0,1-.41-1V16.34h-.62v-.72h.62V14.46H50v1.16h1.2v.72H50v2.42a.47.47,0,0,0,.52.54,2.09,2.09,0,0,0,.68-.14Zm1.09-6.1h1.07V20H52.4Zm2.84,1.8h1.07V20H55.24Zm-.13-1.41a.61.61,0,0,1,.17-.45.65.65,0,0,1,.49-.17.61.61,0,0,1,.48.17.58.58,0,0,1,.18.45.6.6,0,0,1-.18.46.65.65,0,0,1-.48.17.69.69,0,0,1-.49-.17A.64.64,0,0,1,55.11,14.2Zm3.39,4a1.47,1.47,0,0,1,0-2.29,2,2,0,0,1,1.24-.43,2.34,2.34,0,0,1,1.18.27,1.22,1.22,0,0,1,.44-.84,1.37,1.37,0,0,1,.9-.31l-.06,1c-.51,0-.78.17-.8.52a1.34,1.34,0,0,1,.33.85,1.61,1.61,0,0,1-.15.73,1.51,1.51,0,0,1-.42.49,2,2,0,0,1-1.32.43,2.28,2.28,0,0,1-.8-.13.43.43,0,0,0-.36.43c0,.27.23.41.68.41h1.48q1.5,0,1.5,1.05a1.41,1.41,0,0,1-.18.68,1.83,1.83,0,0,1-.51.61,2.89,2.89,0,0,1-1.86.58A3.27,3.27,0,0,1,58,21.85a1.25,1.25,0,0,1-.63-1.05.87.87,0,0,1,.25-.65,1.19,1.19,0,0,1,.66-.29,1,1,0,0,1-.54-.81.72.72,0,0,1,.2-.52A1.05,1.05,0,0,1,58.5,18.22Zm.81,1.9c-.57,0-.85.24-.85.64a.56.56,0,0,0,.35.49,1.9,1.9,0,0,0,.85.19,2.93,2.93,0,0,0,.76-.08,1.58,1.58,0,0,0,.47-.22.76.76,0,0,0,.41-.65.34.34,0,0,0-.12-.27.44.44,0,0,0-.32-.1Zm1.39-3a.84.84,0,0,0-.21-.6.77.77,0,0,0-.62-.23.79.79,0,0,0-.63.23.81.81,0,0,0-.22.6.84.84,0,0,0,.22.6.82.82,0,0,0,.63.23.8.8,0,0,0,.62-.23A.88.88,0,0,0,60.7,17.08Zm3.75-.74a1.43,1.43,0,0,1,1.32-.84,1.51,1.51,0,0,1,1.28.54,2.25,2.25,0,0,1,.41,1.41V20H66.39V17.45a1,1,0,0,0-.23-.73.87.87,0,0,0-.66-.26.92.92,0,0,0-.73.38A1.91,1.91,0,0,0,64.45,18v2H63.38V13.81h1.07Zm7,3.57a2.72,2.72,0,0,1-.94.23,1.88,1.88,0,0,1-.61-.08,1.22,1.22,0,0,1-.45-.24,1.3,1.3,0,0,1-.42-1V16.34h-.61v-.72h.61V14.46h1.07v1.16h1.19v.72H70.15v2.42q0,.54.51.54a2,2,0,0,0,.68-.14Zm2.06-3.69a1.37,1.37,0,0,1,1.27-.72,1.84,1.84,0,0,1,1.39.62,2.37,2.37,0,0,1,.62,1.7,2.34,2.34,0,0,1-.63,1.71,1.81,1.81,0,0,1-1.38.61,1.42,1.42,0,0,1-1.18-.47v2.49H72.59V15.62h.87Zm1.08,3A1.09,1.09,0,0,0,75,19.1a1,1,0,0,0,.37-.26,1.4,1.4,0,0,0,.36-1,1.51,1.51,0,0,0-.31-1,1,1,0,0,0-.76-.36,1.05,1.05,0,0,0-.74.27,1,1,0,0,0-.3.73v.79a.85.85,0,0,0,.3.68A1,1,0,0,0,74.64,19.18Zm4.92-1.73a5.3,5.3,0,0,1,1.21.17v-.43a1,1,0,0,0-.19-.68.75.75,0,0,0-.61-.23,1.06,1.06,0,0,0-.64.17.56.56,0,0,0-.23.47H77.94a1.17,1.17,0,0,1,.52-1.08,2.82,2.82,0,0,1,1.48-.34,1.7,1.7,0,0,1,1.76.95,2,2,0,0,1,.13.77V20H80.9l-.08-.59a1.4,1.4,0,0,1-1.3.71,1.9,1.9,0,0,1-1.32-.41,1.32,1.32,0,0,1-.44-1,1.07,1.07,0,0,1,.48-.94A2.3,2.3,0,0,1,79.56,17.45Zm1.21.85a3.73,3.73,0,0,0-1-.15c-.58,0-.87.2-.87.58a.57.57,0,0,0,.2.43,1,1,0,0,0,.64.17,1,1,0,0,0,.72-.29A1.11,1.11,0,0,0,80.77,18.3Zm3.16-2.68L85,18.79l.92-3.17H87l-1.68,5.19a2.62,2.62,0,0,1-.64,1.13,1.36,1.36,0,0,1-1,.35A2.67,2.67,0,0,1,82.55,22v-.94a1.74,1.74,0,0,0,1,.3A.62.62,0,0,0,84,21.1a2,2,0,0,0,.34-.66l.14-.42-1.77-4.4Z" style="fill:#08083d"/><line x1="26.5" y1="10" x2="26.5" y2="22" style="fill:none;stroke:#a0a0a0;stroke-linecap:round;stroke-miterlimit:10;stroke-width:0.5px"/></svg>