<svg xmlns="http://www.w3.org/2000/svg" width="87" height="32" viewBox="0 0 87 32"><title>cobrand4</title><path d="M71.43,26.89a.87.87,0,1,0,1.74,0,2.43,2.43,0,0,1,2.43-2.43.87.87,0,1,0,0-1.74,4.17,4.17,0,0,0-4.17,4.17M69,23.59a2.43,2.43,0,1,1-2.43-2.43A2.43,2.43,0,0,1,69,23.59m1.74,0a4.17,4.17,0,1,0-4.17,4.17,4.17,4.17,0,0,0,4.17-4.17m12.1-2.77a.89.89,0,0,0-.17-1.22.86.86,0,0,0-1.23.19L80.1,21.67a.34.34,0,0,1-.56,0l-1.32-1.88a.89.89,0,0,0-.71-.37H72.3a.87.87,0,0,0-.87.87V22a.9.9,0,0,0,.84.91.88.88,0,0,0,.9-.87v-.52a.35.35,0,0,1,.34-.35h3.37a.32.32,0,0,1,.28.15L78.34,23a1.05,1.05,0,0,1,0,1.2l-1.52,2.17A.9.9,0,0,0,77,27.59a.87.87,0,0,0,1.23-.2l1.32-1.88a.35.35,0,0,1,.56,0l1.3,1.85a.89.89,0,0,0,1.21.26.87.87,0,0,0,.23-1.23l-1.54-2.2a1.05,1.05,0,0,1,0-1.2Z" style="fill:#ff9e1b"/><path d="M51.61,19.07A5.23,5.23,0,1,0,58.75,21a5.22,5.22,0,0,0-7.14-1.91m6,4.52a.76.76,0,0,1-.76.76h-.58a2.86,2.86,0,0,0-2.47,1.43l-.29.5a.76.76,0,0,1-1.31-.76l.29-.5a2.9,2.9,0,0,0,0-2.85l-.28-.48a.78.78,0,0,1,.25-1.05.76.76,0,0,1,1,.27l.29.5a2.85,2.85,0,0,0,2.47,1.42h.58a.76.76,0,0,1,.76.76" style="fill:#ff9e1b"/><path d="M18.07,21.32a.21.21,0,0,1,.05-.16.26.26,0,0,1,.17-.07h1a1.4,1.4,0,0,1,.54.1,1.27,1.27,0,0,1,.42.25,1,1,0,0,1,.27.39,1.4,1.4,0,0,1,0,1,1,1,0,0,1-.27.41,1.29,1.29,0,0,1-.42.26,1.61,1.61,0,0,1-.54.09h-.75v1.21a.21.21,0,0,1-.23.23.23.23,0,0,1-.16-.06.24.24,0,0,1-.06-.17Zm.45.18v1.73h.72A.89.89,0,0,0,19.9,23a.85.85,0,0,0,.24-.63.82.82,0,0,0-.24-.63.89.89,0,0,0-.66-.23Z" style="fill:#3c3c3b"/><path d="M23.39,24a1.4,1.4,0,0,1-.08.47,1.11,1.11,0,0,1-.23.36,1,1,0,0,1-.36.23,1.25,1.25,0,0,1-.45.08,1.34,1.34,0,0,1-.46-.08,1,1,0,0,1-.35-.23,1.09,1.09,0,0,1-.22-.36,1.19,1.19,0,0,1-.08-.47v-.78a1.19,1.19,0,0,1,.08-.47,1.09,1.09,0,0,1,.22-.36,1,1,0,0,1,.35-.23,1.34,1.34,0,0,1,.46-.08,1.25,1.25,0,0,1,.45.08,1,1,0,0,1,.36.23,1.11,1.11,0,0,1,.23.36,1.4,1.4,0,0,1,.08.47Zm-1.8,0a.77.77,0,0,0,.18.52.63.63,0,0,0,.5.21.61.61,0,0,0,.5-.21A.77.77,0,0,0,23,24v-.84a.77.77,0,0,0-.18-.52.61.61,0,0,0-.5-.21.63.63,0,0,0-.5.21.77.77,0,0,0-.18.52Z" style="fill:#3c3c3b"/><path d="M26.69,24.88a.25.25,0,0,1-.48,0l-.55-2-.54,2a.24.24,0,0,1-.24.19.25.25,0,0,1-.25-.19l-.7-2.5a.23.23,0,0,1,0-.07.24.24,0,0,1,.06-.17.18.18,0,0,1,.15-.07.25.25,0,0,1,.15.05.24.24,0,0,1,.07.13l.54,2.12.54-2.11a.22.22,0,0,1,.08-.13.25.25,0,0,1,.16-.06.24.24,0,0,1,.15.06.3.3,0,0,1,.09.13l.53,2.1L27,22.24a.19.19,0,0,1,.07-.12.19.19,0,0,1,.13-.05.18.18,0,0,1,.14.06.23.23,0,0,1,.07.14.26.26,0,0,1,0,.12Z" style="fill:#3c3c3b"/><path d="M29.92,24a.2.2,0,0,1,.15.06.27.27,0,0,1,0,.18.86.86,0,0,1-.33.6,1.17,1.17,0,0,1-.74.23,1.34,1.34,0,0,1-.46-.08,1,1,0,0,1-.35-.22,1,1,0,0,1-.23-.34,1.34,1.34,0,0,1-.08-.46v-.82a1.4,1.4,0,0,1,.08-.47,1.11,1.11,0,0,1,.23-.36,1,1,0,0,1,.35-.23A1.34,1.34,0,0,1,29,22a1.23,1.23,0,0,1,.44.08,1,1,0,0,1,.35.23,1.09,1.09,0,0,1,.22.36,1.4,1.4,0,0,1,.08.47v.23a.21.21,0,0,1-.22.22H28.36v.42a.71.71,0,0,0,.18.49.66.66,0,0,0,.51.2.72.72,0,0,0,.49-.16.66.66,0,0,0,.19-.39A.17.17,0,0,1,29.92,24Zm-1.56-.74h1.35v-.15a.84.84,0,0,0-.17-.53.7.7,0,0,0-1,0,.79.79,0,0,0-.18.53Z" style="fill:#3c3c3b"/><path d="M31.28,22.48a.77.77,0,0,1,.31-.31.81.81,0,0,1,.44-.12.17.17,0,0,1,.14.06.2.2,0,0,1,.06.15.2.2,0,0,1,0,.14.16.16,0,0,1-.13.06.73.73,0,0,0-.54.2.7.7,0,0,0-.2.53v1.66a.22.22,0,1,1-.44,0V22.27a.2.2,0,0,1,.05-.14.17.17,0,0,1,.14-.06.15.15,0,0,1,.11,0,.15.15,0,0,1,.07.12Z" style="fill:#3c3c3b"/><path d="M34.6,24a.19.19,0,0,1,.15.06.22.22,0,0,1,0,.18.8.8,0,0,1-.33.6,1.14,1.14,0,0,1-.73.23,1.34,1.34,0,0,1-.46-.08.91.91,0,0,1-.35-.22.89.89,0,0,1-.23-.34,1.34,1.34,0,0,1-.08-.46v-.82a1.4,1.4,0,0,1,.08-.47,1,1,0,0,1,.23-.36.93.93,0,0,1,.35-.23,1.34,1.34,0,0,1,.46-.08,1.32,1.32,0,0,1,.44.08.89.89,0,0,1,.34.23,1,1,0,0,1,.22.36,1.19,1.19,0,0,1,.08.47v.23a.21.21,0,0,1-.06.16.19.19,0,0,1-.15.06H33.05v.42a.71.71,0,0,0,.18.49.65.65,0,0,0,.5.2.7.7,0,0,0,.49-.16.67.67,0,0,0,.2-.39A.17.17,0,0,1,34.6,24Zm-1.55-.74H34.4v-.15a.79.79,0,0,0-.18-.53.59.59,0,0,0-.49-.21.64.64,0,0,0-.51.21.84.84,0,0,0-.17.53Z" style="fill:#3c3c3b"/><path d="M37.68,24.87c0,.13-.06.2-.19.2a.15.15,0,0,1-.11,0,.18.18,0,0,1-.07-.12l0-.21a.87.87,0,0,1-.34.29,1,1,0,0,1-.46.11,1,1,0,0,1-.75-.3,1.11,1.11,0,0,1-.27-.79v-.88a1.11,1.11,0,0,1,.27-.79,1,1,0,0,1,.75-.3.92.92,0,0,1,.44.1,1,1,0,0,1,.32.26V21.16A.23.23,0,0,1,37.3,21a.28.28,0,0,1,.32,0,.23.23,0,0,1,.06.16Zm-1.13-.16a.64.64,0,0,0,.51-.21.76.76,0,0,0,.18-.51v-.83a.78.78,0,0,0-.18-.52.64.64,0,0,0-.51-.21.57.57,0,0,0-.48.2.72.72,0,0,0-.17.48V24a.72.72,0,0,0,.17.48A.57.57,0,0,0,36.55,24.71Z" style="fill:#3c3c3b"/><path d="M39.81,21.17a.2.2,0,0,1,.07-.16A.21.21,0,0,1,40,21a.2.2,0,0,1,.15.06.23.23,0,0,1,.06.16V22.4a.93.93,0,0,1,.33-.26A.88.88,0,0,1,41,22a1,1,0,0,1,.75.3,1.11,1.11,0,0,1,.27.79V24a1.11,1.11,0,0,1-.27.79,1,1,0,0,1-.75.3,1,1,0,0,1-.46-.11.84.84,0,0,1-.33-.29l0,.21a.17.17,0,0,1-.06.12.19.19,0,0,1-.12,0,.18.18,0,0,1-.19-.2Zm1.13,3.54a.6.6,0,0,0,.49-.2.71.71,0,0,0,.16-.48v-.92a.71.71,0,0,0-.16-.48.6.6,0,0,0-.49-.2.63.63,0,0,0-.5.21.74.74,0,0,0-.19.52V24a.72.72,0,0,0,.19.51A.63.63,0,0,0,40.94,24.71Z" style="fill:#3c3c3b"/><path d="M43.55,26a.28.28,0,0,1-.08.11.21.21,0,0,1-.11,0,.18.18,0,0,1-.16-.08.19.19,0,0,1,0-.18l.32-.88-1-2.67a.24.24,0,0,1,0-.2.18.18,0,0,1,.18-.11.21.21,0,0,1,.22.16l.75,2.21.76-2.22a.18.18,0,0,1,.19-.15.2.2,0,0,1,.18.09.24.24,0,0,1,0,.2Z" style="fill:#3c3c3b"/><path d="M4.22,14.44A6.44,6.44,0,0,1,2,14,6,6,0,0,1,0,12.8L1.48,11a5.89,5.89,0,0,0,1.34.86,3.63,3.63,0,0,0,1.47.33,1.9,1.9,0,0,0,1.18-.3.94.94,0,0,0,.41-.8.86.86,0,0,0-.13-.46,1,1,0,0,0-.33-.33,2.76,2.76,0,0,0-.52-.28l-.66-.29L2.75,9.14a5.35,5.35,0,0,1-.85-.45A4.09,4.09,0,0,1,1.17,8a3.27,3.27,0,0,1-.51-.87A3.15,3.15,0,0,1,.47,6,3,3,0,0,1,.76,4.73,3.16,3.16,0,0,1,1.6,3.65a4,4,0,0,1,1.28-.74,5,5,0,0,1,1.63-.26,5.15,5.15,0,0,1,2,.39A4.86,4.86,0,0,1,8.18,4.15L6.87,5.77a4.5,4.5,0,0,0-1.12-.66,3.08,3.08,0,0,0-1.24-.24,1.8,1.8,0,0,0-1.06.28.83.83,0,0,0-.38.75.84.84,0,0,0,.12.45,1.34,1.34,0,0,0,.37.33A5.59,5.59,0,0,0,4.11,7c.21.08.44.17.68.28l1.47.59A3.94,3.94,0,0,1,7.9,9a2.93,2.93,0,0,1,.61,1.94,3.18,3.18,0,0,1-.3,1.36,3.09,3.09,0,0,1-.84,1.12A4.12,4.12,0,0,1,6,14.16,5.37,5.37,0,0,1,4.22,14.44Zm6.22-.21V2.86h3.91a7.66,7.66,0,0,1,1.76.19,3.92,3.92,0,0,1,1.43.61,3,3,0,0,1,1,1.14,3.71,3.71,0,0,1,.36,1.72,3.87,3.87,0,0,1-.36,1.73,3.36,3.36,0,0,1-1,1.2,4,4,0,0,1-1.42.7,6.23,6.23,0,0,1-1.7.23H13v3.85ZM13,8.34h1.26c1.39,0,2.09-.61,2.09-1.82a1.36,1.36,0,0,0-.56-1.25,2.85,2.85,0,0,0-1.6-.37H13Zm12.45,6.1a5.36,5.36,0,0,1-2.11-.4,4.55,4.55,0,0,1-1.62-1.19A5.47,5.47,0,0,1,20.65,11a8,8,0,0,1-.36-2.5A7.79,7.79,0,0,1,20.65,6a5.06,5.06,0,0,1,1.07-1.83,4.42,4.42,0,0,1,1.62-1.14,5.55,5.55,0,0,1,2.11-.4,5.37,5.37,0,0,1,2.09.4,4.41,4.41,0,0,1,1.64,1.14A4.92,4.92,0,0,1,30.23,6a7.2,7.2,0,0,1,.38,2.45,7.46,7.46,0,0,1-.38,2.5,5.13,5.13,0,0,1-1.05,1.86A4.53,4.53,0,0,1,27.54,14,5.19,5.19,0,0,1,25.45,14.44Zm0-2.21a2.11,2.11,0,0,0,1.85-1A4.85,4.85,0,0,0,28,8.49a4.55,4.55,0,0,0-.68-2.66,2.26,2.26,0,0,0-3.7,0,4.55,4.55,0,0,0-.68,2.66,4.85,4.85,0,0,0,.68,2.74A2.13,2.13,0,0,0,25.45,12.23Zm9,2V5H31.35V2.86h8.83V5H37.05v9.21Zm7.48,0V2.86h2.56v9.21H49v2.16Zm9,0V2.86h2.56V14.23Zm10.26.21a6.58,6.58,0,0,1-2.19-.36A5,5,0,0,1,57.29,13a5.24,5.24,0,0,1-1.19-1.81,7.1,7.1,0,0,1-.42-2.53,6.82,6.82,0,0,1,.44-2.52A5.52,5.52,0,0,1,57.3,4.22a5.3,5.3,0,0,1,1.78-1.17,6,6,0,0,1,2.15-.4,4.58,4.58,0,0,1,2.13.46,5.41,5.41,0,0,1,1.44,1L63.46,5.77a5.07,5.07,0,0,0-.92-.64,2.55,2.55,0,0,0-1.23-.26,2.79,2.79,0,0,0-1.22.26,2.69,2.69,0,0,0-.94.71A3.63,3.63,0,0,0,58.52,7a5.26,5.26,0,0,0-.21,1.54,4.3,4.3,0,0,0,.79,2.74,3,3,0,0,0,2.41,1,2.59,2.59,0,0,0,.68-.09,1.51,1.51,0,0,0,.54-.26v-2H60.84V7.83H65v5.23a4.74,4.74,0,0,1-1.56,1A5.7,5.7,0,0,1,61.24,14.44Zm6.1-.21V2.86h2.57V7.24h3.92V2.86h2.58V14.23H73.83V9.49H69.91v4.74Zm14,0V5H78.19V2.86H87V5H83.89v9.21Z" style="fill:#001eb6"/></svg>