<svg xmlns="http://www.w3.org/2000/svg" width="87" height="32" viewBox="0 0 87 32"><title>OFX_LOGO+ICON_RGB</title><path d="M19.21,18.82a.74.74,0,0,0,1.48,0,2.08,2.08,0,0,1,2.08-2.08.74.74,0,1,0,0-1.48,3.56,3.56,0,0,0-3.56,3.56M17.12,16A2.08,2.08,0,1,1,15,13.92,2.08,2.08,0,0,1,17.12,16m1.48,0A3.57,3.57,0,1,0,15,19.56,3.56,3.56,0,0,0,18.6,16M29,13.63a.77.77,0,0,0-.15-1.05.74.74,0,0,0-1.05.17l-1.12,1.61a.3.3,0,0,1-.49,0L25,12.75a.72.72,0,0,0-.6-.31H20a.74.74,0,0,0-.74.74v1.45a.77.77,0,0,0,.72.78.74.74,0,0,0,.76-.75v-.44a.3.3,0,0,1,.3-.3h2.88a.31.31,0,0,1,.24.13l1,1.44a.9.9,0,0,1,0,1l-1.3,1.86A.77.77,0,0,0,24,19.42.75.75,0,0,0,25,19.25l1.12-1.61a.3.3,0,0,1,.49,0l1.1,1.58a.77.77,0,0,0,1,.22.74.74,0,0,0,.2-1l-1.32-1.89a.87.87,0,0,1,0-1Z" style="fill:#ff9e1b"/><path d="M2.27,12.13a4.47,4.47,0,1,0,6.1,1.64,4.47,4.47,0,0,0-6.1-1.64M7.43,16a.65.65,0,0,1-.65.65H6.29a2.42,2.42,0,0,0-2.11,1.22l-.25.42a.65.65,0,1,1-1.12-.65l.24-.42a2.42,2.42,0,0,0,0-2.44l-.23-.41a.67.67,0,0,1,.21-.9.66.66,0,0,1,.9.24l.25.42a2.42,2.42,0,0,0,2.11,1.22h.49a.65.65,0,0,1,.65.65" style="fill:#ff9e1b"/><path d="M41.05,18.55h0a3.2,3.2,0,0,0,2.39.11,2.46,2.46,0,0,0,.85-.49h0a2.5,2.5,0,0,0,.55-.75,2.24,2.24,0,0,0,.2-.92,2,2,0,0,0-.24-1,2.11,2.11,0,0,0-.74-.71h0l-.56-.34L43,14.08s0,0,0,0h0a.16.16,0,0,1,.06-.12h0a.39.39,0,0,1,.26-.06.58.58,0,0,1,.35.1h0a2,2,0,0,1,.41.34l.23.22.23-.22.93-.88.23-.21-.2-.23a3,3,0,0,0-1-.78,2.68,2.68,0,0,0-2.16-.1,2.41,2.41,0,0,0-.8.48,2.23,2.23,0,0,0-.55.71,2,2,0,0,0-.22.91A2,2,0,0,0,41,15.29h0a2.58,2.58,0,0,0,.75.72h0l.53.33h0l.49.31h0l0,0h0c0,.07,0,.1-.05.13h0a.49.49,0,0,1-.32.08,1,1,0,0,1-.52-.16,1.71,1.71,0,0,1-.48-.45l-.2-.27-.27.21-1.06.84-.25.2.19.25A3.12,3.12,0,0,0,41.05,18.55Z" style="fill:#fff"/><path d="M42.35,19.17a3.49,3.49,0,0,1-1.43-.32h0l.14-.3-.14.3a3.58,3.58,0,0,1-1.31-1.11l-.38-.51L41,15.81a3.92,3.92,0,0,1-.27-.33h0a2.3,2.3,0,0,1-.34-1.29,2.42,2.42,0,0,1,.24-1.06,2.77,2.77,0,0,1,.63-.81,3.08,3.08,0,0,1,2-.74,2.92,2.92,0,0,1,1.32.32,3.25,3.25,0,0,1,1.07.86l.4.47-1.56,1.46a2.09,2.09,0,0,1,.57.63,2.3,2.3,0,0,1,.29,1.19,2.56,2.56,0,0,1-.23,1.06,2.62,2.62,0,0,1-.63.85h0a3,3,0,0,1-1,.55A3.51,3.51,0,0,1,42.35,19.17Zm-1.17-.92a2.82,2.82,0,0,0,1.17.26,3,3,0,0,0,1-.15,2.5,2.5,0,0,0,.75-.43,2.12,2.12,0,0,0,.47-.65,1.85,1.85,0,0,0,.17-.78,1.62,1.62,0,0,0-.19-.85h0a1.77,1.77,0,0,0-.62-.59l-.56-.35-.55-.34,0,0a.4.4,0,0,1-.13-.13l0,0,0-.06v0a.09.09,0,0,1,0-.05.5.5,0,0,1,.16-.36h0a.66.66,0,0,1,.49-.16,1,1,0,0,1,.53.15h0a2.7,2.7,0,0,1,.47.38h0l.94-.87h0a2.61,2.61,0,0,0-.87-.69h0a2.26,2.26,0,0,0-1-.25,2.49,2.49,0,0,0-.87.16,2.14,2.14,0,0,0-.7.42h0a2.21,2.21,0,0,0-.47.62,1.81,1.81,0,0,0,.06,1.69,2.32,2.32,0,0,0,.66.62h0l.52.33.51.33h0a.47.47,0,0,1,.14.14l0,.08a.38.38,0,0,1,0,.1.44.44,0,0,1-.19.39.82.82,0,0,1-.52.14,1.3,1.3,0,0,1-.69-.2,2.25,2.25,0,0,1-.58-.53h0l-1.06.84a2.91,2.91,0,0,0,1,.9Zm.69-2.38-.09.14.18-.28Z" style="fill:#08083d"/><path d="M46.9,15.35a1.16,1.16,0,0,1,1.06-.6,1.55,1.55,0,0,1,1.17.51,2,2,0,0,1,.52,1.43,2,2,0,0,1-.52,1.43,1.59,1.59,0,0,1-1.17.52,1.17,1.17,0,0,1-1-.41v2.1h-.9V14.84h.74Zm.91,2.47a1,1,0,0,0,.32-.06.84.84,0,0,0,.31-.22,1.18,1.18,0,0,0,.31-.85,1.25,1.25,0,0,0-.27-.84.8.8,0,0,0-.64-.3.86.86,0,0,0-.61.22.82.82,0,0,0-.25.61V17a.73.73,0,0,0,.25.58A.84.84,0,0,0,47.81,17.82Zm4.35-3.07a2,2,0,0,1,.7.12,1.36,1.36,0,0,1,.56.35,2,2,0,0,1,.52,1.47,2,2,0,0,1-.52,1.46,1.68,1.68,0,0,1-1.26.49,1.73,1.73,0,0,1-1.27-.49,2,2,0,0,1-.53-1.46,2,2,0,0,1,.53-1.47A1.75,1.75,0,0,1,52.16,14.75Zm.89,1.94a1.39,1.39,0,0,0-.23-.87.75.75,0,0,0-.64-.3.85.85,0,0,0-.66.3,1.27,1.27,0,0,0-.25.87,1.45,1.45,0,0,0,.22.88.79.79,0,0,0,.64.28.84.84,0,0,0,.66-.28A1.32,1.32,0,0,0,53.05,16.69Zm4,1.75a2.33,2.33,0,0,1-.78.2,1.85,1.85,0,0,1-.51-.07,1.28,1.28,0,0,1-.38-.21,1.08,1.08,0,0,1-.35-.85V15.44h-.52v-.6h.52v-1H56v1h1v.6H56v2c0,.3.14.45.43.45a1.93,1.93,0,0,0,.57-.12ZM58,13.33h.89v5.2H58Zm2.38,1.51h.89v3.69h-.89Zm-.11-1.19a.47.47,0,0,1,.15-.37.52.52,0,0,1,.4-.15.54.54,0,0,1,.41.15.47.47,0,0,1,.15.37.51.51,0,0,1-.15.39.58.58,0,0,1-.41.14.56.56,0,0,1-.4-.14A.51.51,0,0,1,60.27,13.65ZM63.11,17a1.23,1.23,0,0,1,0-1.92,1.61,1.61,0,0,1,1-.35,2,2,0,0,1,1,.22,1,1,0,0,1,.37-.7,1.11,1.11,0,0,1,.75-.27l0,.86c-.43,0-.66.14-.67.43a1.16,1.16,0,0,1,.28.71,1.42,1.42,0,0,1-.13.62,1.25,1.25,0,0,1-.35.41,1.72,1.72,0,0,1-1.11.36,2,2,0,0,1-.67-.11.37.37,0,0,0-.31.36c0,.23.2.34.58.34h1.24c.84,0,1.26.3,1.26.88a1.13,1.13,0,0,1-.16.58,1.44,1.44,0,0,1-.42.51,2.5,2.5,0,0,1-1.56.48,2.64,2.64,0,0,1-1.48-.37,1,1,0,0,1-.53-.87.77.77,0,0,1,.2-.55,1.07,1.07,0,0,1,.56-.25.78.78,0,0,1-.45-.67.57.57,0,0,1,.17-.44A.89.89,0,0,1,63.11,17Zm.68,1.59c-.47,0-.71.2-.71.54a.46.46,0,0,0,.29.41,1.5,1.5,0,0,0,.72.16,2.1,2.1,0,0,0,.63-.07,1.13,1.13,0,0,0,.4-.18.66.66,0,0,0,.34-.55.27.27,0,0,0-.1-.22.37.37,0,0,0-.27-.09ZM65,16.07a.72.72,0,0,0-.17-.5.64.64,0,0,0-.52-.2.66.66,0,0,0-.53.2.68.68,0,0,0-.18.5.73.73,0,0,0,.18.5.69.69,0,0,0,.53.19.67.67,0,0,0,.52-.19A.78.78,0,0,0,65,16.07Zm3.15-.63a1.19,1.19,0,0,1,1.1-.69,1.26,1.26,0,0,1,1.07.44,1.85,1.85,0,0,1,.35,1.19v2.15h-.89V16.38a.87.87,0,0,0-.2-.62.72.72,0,0,0-.55-.21.78.78,0,0,0-.62.32,1.63,1.63,0,0,0-.26,1v1.71h-.9v-5.2h.9Zm5.9,3a2.33,2.33,0,0,1-.78.2,1.85,1.85,0,0,1-.51-.07,1.28,1.28,0,0,1-.38-.21,1.08,1.08,0,0,1-.35-.85V15.44h-.52v-.6H72v-1h.89v1h1v.6h-1v2a.39.39,0,0,0,.44.45,1.93,1.93,0,0,0,.57-.12Zm1.74-3.09a1.14,1.14,0,0,1,1.06-.6,1.58,1.58,0,0,1,1.17.51,2,2,0,0,1,.51,1.43A2,2,0,0,1,78,18.12a1.55,1.55,0,0,1-1.16.52,1.18,1.18,0,0,1-1-.41v2.1h-.89V14.84h.73Zm.9,2.47a1,1,0,0,0,.33-.06.93.93,0,0,0,.31-.22,1.18,1.18,0,0,0,.3-.85,1.25,1.25,0,0,0-.27-.84.8.8,0,0,0-.63-.3.89.89,0,0,0-.62.22.86.86,0,0,0-.25.61V17a.76.76,0,0,0,.25.58A.84.84,0,0,0,76.64,17.82Zm4.12-1.44a4.12,4.12,0,0,1,1,.14v-.36a.88.88,0,0,0-.16-.57.6.6,0,0,0-.51-.19.94.94,0,0,0-.54.14.45.45,0,0,0-.19.4h-1a1,1,0,0,1,.44-.91,2.32,2.32,0,0,1,1.25-.28,1.43,1.43,0,0,1,1.47.79,1.8,1.8,0,0,1,.11.65v2.34h-.78L81.82,18a1.18,1.18,0,0,1-1.09.6,1.64,1.64,0,0,1-1.11-.35,1.12,1.12,0,0,1-.36-.84.88.88,0,0,1,.4-.79A1.87,1.87,0,0,1,80.76,16.38Zm1,.71a3.27,3.27,0,0,0-.84-.12c-.48,0-.73.16-.73.48a.48.48,0,0,0,.17.36.78.78,0,0,0,.53.14.82.82,0,0,0,.61-.24A.92.92,0,0,0,81.78,17.09Zm2.65-2.25.89,2.66.77-2.66H87L85.59,19.2a2.22,2.22,0,0,1-.54.94,1.09,1.09,0,0,1-.79.29,2.25,2.25,0,0,1-1-.24V19.4a1.45,1.45,0,0,0,.8.25.53.53,0,0,0,.43-.21,1.77,1.77,0,0,0,.28-.55l.11-.36-1.48-3.69Z" style="fill:#08083d"/><rect x="34.25" y="9.5" width="0.5" height="13" style="fill:#050504;opacity:0.25"/></svg>