<svg xmlns="http://www.w3.org/2000/svg" width="87" height="32" viewBox="0 0 87 32"><title>OFX_LOGO+ICON_RGB</title><path d="M70.74,27.44a.66.66,0,0,0,.66.65.65.65,0,0,0,.65-.65,1.84,1.84,0,0,1,1.84-1.84.66.66,0,1,0,0-1.31,3.15,3.15,0,0,0-3.15,3.15M68.89,25a1.84,1.84,0,1,1-1.83-1.84A1.83,1.83,0,0,1,68.89,25m1.31,0a3.15,3.15,0,1,0-3.14,3.14A3.15,3.15,0,0,0,70.2,25m9.14-2.1a.66.66,0,1,0-1.06-.77l-1,1.42a.27.27,0,0,1-.43,0l-1-1.42a.66.66,0,0,0-.54-.28H71.4a.66.66,0,0,0-.66.65v1.29a.67.67,0,0,0,.64.68.65.65,0,0,0,.67-.65v-.4a.27.27,0,0,1,.27-.26h2.53a.27.27,0,0,1,.22.11L76,24.49a.8.8,0,0,1,0,.91L74.81,27a.66.66,0,0,0,.13.92.64.64,0,0,0,.93-.15l1-1.41a.26.26,0,0,1,.43,0l1,1.39a.66.66,0,1,0,1.09-.73L78.19,25.4a.8.8,0,0,1,0-.91Z" style="fill:#ff9e1b"/><path d="M55.78,21.53A3.94,3.94,0,1,0,61.17,23a3.94,3.94,0,0,0-5.39-1.44M60.34,25a.58.58,0,0,1-.58.57h-.43a2.16,2.16,0,0,0-1.87,1.08l-.21.37a.58.58,0,0,1-1-.57l.22-.38a2.17,2.17,0,0,0,0-2.15l-.21-.36a.59.59,0,0,1,.19-.8.59.59,0,0,1,.8.21l.21.38a2.17,2.17,0,0,0,1.87,1.07h.43a.58.58,0,0,1,.58.58" style="fill:#ff9e1b"/><path d="M3.32,15.75h0a5.75,5.75,0,0,0,2.37.53,5.85,5.85,0,0,0,2-.33,4.83,4.83,0,0,0,1.55-.89h0a4.31,4.31,0,0,0,1-1.36A4,4,0,0,0,10.61,12a3.52,3.52,0,0,0-.44-1.85A3.7,3.7,0,0,0,8.83,8.87h0l-1-.63-1-.64s-.07-.06-.07-.07h0a.25.25,0,0,1,.1-.22h0s.15-.11.46-.11A1.13,1.13,0,0,1,8,7.35H8A5,5,0,0,1,8.73,8l.41.41L9.56,8l1.7-1.6L11.67,6l-.36-.43A5.69,5.69,0,0,0,9.54,4.15a4.53,4.53,0,0,0-2.13-.52A5,5,0,0,0,5.61,4,4.51,4.51,0,0,0,3.14,6.13a3.67,3.67,0,0,0-.38,1.66,3.6,3.6,0,0,0,.52,2h0a4.77,4.77,0,0,0,1.37,1.31h0l1,.6h0c.38.23.68.43.89.57h0a.16.16,0,0,1,.06,0h0a0,0,0,0,1,0,0,.25.25,0,0,1-.11.23h0a1,1,0,0,1-.58.13A1.82,1.82,0,0,1,5,12.49a3.15,3.15,0,0,1-.89-.82l-.37-.49-.48.38L1.28,13.09l-.45.36.35.46A5.79,5.79,0,0,0,3.32,15.75Z" style="fill:#fff"/><path d="M5.7,16.88a6.45,6.45,0,0,1-2.61-.58h0l.25-.54-.25.54a6.31,6.31,0,0,1-2.37-2L0,13.34l3.28-2.59a5.58,5.58,0,0,1-.49-.6v0a4.18,4.18,0,0,1-.62-2.34,4.2,4.2,0,0,1,.45-1.92A4.59,4.59,0,0,1,3.75,4.39a4.91,4.91,0,0,1,1.65-1,5.36,5.36,0,0,1,2-.37,5.19,5.19,0,0,1,2.4.59,6.1,6.1,0,0,1,2,1.56l.72.86L9.65,8.71a4.1,4.1,0,0,1,1,1.14A4.19,4.19,0,0,1,11.21,12a4.53,4.53,0,0,1-.42,1.93,4.79,4.79,0,0,1-1.14,1.55l0,0a5.4,5.4,0,0,1-1.74,1A6.41,6.41,0,0,1,5.7,16.88ZM3.58,15.2a5.14,5.14,0,0,0,2.12.48,5.27,5.27,0,0,0,1.78-.29,4.11,4.11,0,0,0,1.36-.78,3.65,3.65,0,0,0,.87-1.17A3.43,3.43,0,0,0,10,12a2.88,2.88,0,0,0-.35-1.54h0A3,3,0,0,0,8.52,9.38l-1-.64-1-.63,0,0a.75.75,0,0,1-.23-.24l0-.06,0-.1V7.6a.19.19,0,0,1,0-.08.88.88,0,0,1,.29-.66h0a1.21,1.21,0,0,1,.88-.29,1.77,1.77,0,0,1,1,.27h0a5,5,0,0,1,.87.7h0l1.7-1.6h0A4.73,4.73,0,0,0,9.27,4.69h0a4,4,0,0,0-1.85-.45,4.43,4.43,0,0,0-1.59.28,4,4,0,0,0-1.27.77h0A3.61,3.61,0,0,0,3.68,6.4a3,3,0,0,0-.33,1.39,3.07,3.07,0,0,0,.43,1.69A4.15,4.15,0,0,0,5,10.62H5l1,.59c.38.24.69.44.91.6h0a.77.77,0,0,1,.25.26.39.39,0,0,1,.06.15.55.55,0,0,1,0,.18.84.84,0,0,1-.35.71,1.54,1.54,0,0,1-.94.26A2.42,2.42,0,0,1,4.65,13a3.91,3.91,0,0,1-1.06-1h0L1.66,13.56A5.14,5.14,0,0,0,3.58,15.2Zm1.25-4.34-.16.26.31-.5Z" style="fill:#08083d"/><path d="M14,9.91a2.08,2.08,0,0,1,1.93-1.09,2.81,2.81,0,0,1,2.13.94A3.65,3.65,0,0,1,19,12.35,3.59,3.59,0,0,1,18,15a2.78,2.78,0,0,1-2.11.94,2.1,2.1,0,0,1-1.79-.73V19H12.5V9h1.34Zm1.64,4.52a1.66,1.66,0,0,0,.6-.13,1.42,1.42,0,0,0,.56-.39,2.12,2.12,0,0,0,.55-1.54,2.23,2.23,0,0,0-.48-1.53,1.46,1.46,0,0,0-1.16-.56,1.65,1.65,0,0,0-1.12.4,1.54,1.54,0,0,0-.45,1.12V13a1.32,1.32,0,0,0,.45,1.05A1.56,1.56,0,0,0,15.63,14.43Zm7.93-5.61A3.53,3.53,0,0,1,24.83,9a2.59,2.59,0,0,1,1,.65,3.63,3.63,0,0,1,1,2.68,3.61,3.61,0,0,1-1,2.65,3,3,0,0,1-2.29.88A3.13,3.13,0,0,1,21.24,15a3.61,3.61,0,0,1-.95-2.65,3.64,3.64,0,0,1,.95-2.68A3.15,3.15,0,0,1,23.56,8.82Zm1.62,3.53a2.5,2.5,0,0,0-.42-1.58,1.37,1.37,0,0,0-1.16-.54,1.52,1.52,0,0,0-1.2.54,2.33,2.33,0,0,0-.47,1.58A2.6,2.6,0,0,0,22.35,14a1.4,1.4,0,0,0,1.16.52,1.55,1.55,0,0,0,1.2-.52A2.42,2.42,0,0,0,25.18,12.35Zm7.35,3.19a4.25,4.25,0,0,1-1.44.36,3.16,3.16,0,0,1-.92-.12,2.09,2.09,0,0,1-.69-.37,2,2,0,0,1-.64-1.56V10.09H27.9V9h.94V7.23h1.63V9h1.82v1.09H30.47v3.7c0,.55.26.83.79.83a3.23,3.23,0,0,0,1-.22Zm1.66-9.3h1.63v9.47H34.19ZM38.52,9h1.63v6.72H38.52Zm-.19-2.16a.94.94,0,0,1,.26-.69,1.05,1.05,0,0,1,.75-.26,1,1,0,0,1,.73.26.91.91,0,0,1,.28.69,1,1,0,0,1-.28.71,1.05,1.05,0,0,1-.73.24,1.09,1.09,0,0,1-.75-.24A1,1,0,0,1,38.33,6.83ZM43.5,13a2.23,2.23,0,0,1,0-3.49,3,3,0,0,1,1.89-.65,3.59,3.59,0,0,1,1.79.4A1.83,1.83,0,0,1,47.9,8a2.08,2.08,0,0,1,1.37-.48L49.18,9c-.79,0-1.2.26-1.22.78a2.08,2.08,0,0,1,.51,1.3,2.38,2.38,0,0,1-.24,1.12,2.52,2.52,0,0,1-.63.75,3.16,3.16,0,0,1-2,.66,3.45,3.45,0,0,1-1.23-.21.66.66,0,0,0-.55.66q0,.63,1.05.63H47.1c1.53,0,2.29.53,2.29,1.6a2.12,2.12,0,0,1-.28,1.05,2.67,2.67,0,0,1-.77.92,4.46,4.46,0,0,1-2.84.88,4.83,4.83,0,0,1-2.69-.67,1.87,1.87,0,0,1-1-1.59,1.34,1.34,0,0,1,.37-1,1.93,1.93,0,0,1,1-.46,1.45,1.45,0,0,1-.82-1.23,1.13,1.13,0,0,1,.31-.8A1.61,1.61,0,0,1,43.5,13Zm1.24,2.9c-.87,0-1.3.36-1.3,1a.85.85,0,0,0,.54.75,2.8,2.8,0,0,0,1.3.29,4,4,0,0,0,1.16-.13,2.22,2.22,0,0,0,.71-.33,1.18,1.18,0,0,0,.63-1A.54.54,0,0,0,47.6,16a.73.73,0,0,0-.5-.15Zm2.11-4.64a1.29,1.29,0,0,0-.32-.91,1.15,1.15,0,0,0-.94-.36,1.24,1.24,0,0,0-1,.36,1.26,1.26,0,0,0-.33.91,1.29,1.29,0,0,0,.33.91,1.24,1.24,0,0,0,1,.36,1.15,1.15,0,0,0,.94-.36A1.33,1.33,0,0,0,46.85,11.22Zm5.73-1.13a2.18,2.18,0,0,1,2-1.27,2.28,2.28,0,0,1,1.94.81,3.41,3.41,0,0,1,.64,2.16v3.92H55.55V11.79a1.55,1.55,0,0,0-.36-1.12,1.31,1.31,0,0,0-1-.39,1.44,1.44,0,0,0-1.12.58,3,3,0,0,0-.48,1.74v3.11H51V6.24h1.63Zm10.76,5.45a4.25,4.25,0,0,1-1.44.36,3.16,3.16,0,0,1-.92-.12,2.09,2.09,0,0,1-.69-.37,2,2,0,0,1-.64-1.56V10.09h-.94V9h.94V7.23h1.63V9H63.1v1.09H61.28v3.7c0,.55.26.83.79.83a3.23,3.23,0,0,0,1-.22Zm3.15-5.63a2.1,2.1,0,0,1,1.94-1.09,2.8,2.8,0,0,1,2.12.94,3.6,3.6,0,0,1,.94,2.59A3.63,3.63,0,0,1,70.54,15a2.8,2.8,0,0,1-2.11.94,2.13,2.13,0,0,1-1.8-.73V19H65V9h1.34Zm1.65,4.52a1.61,1.61,0,0,0,.59-.13,1.42,1.42,0,0,0,.56-.39,2.13,2.13,0,0,0,.56-1.54,2.18,2.18,0,0,0-.49-1.53,1.46,1.46,0,0,0-1.16-.56,1.61,1.61,0,0,0-1.11.4,1.51,1.51,0,0,0-.46,1.12V13a1.3,1.3,0,0,0,.46,1.05A1.52,1.52,0,0,0,68.14,14.43Zm7.5-2.64a8,8,0,0,1,1.85.26v-.66a1.57,1.57,0,0,0-.29-1,1.14,1.14,0,0,0-.93-.34,1.57,1.57,0,0,0-1,.26A.83.83,0,0,0,75,11H73.17A1.8,1.8,0,0,1,74,9.33a4.23,4.23,0,0,1,2.26-.51,2.58,2.58,0,0,1,2.68,1.45,3,3,0,0,1,.21,1.17v4.27H77.69l-.12-.9a2.15,2.15,0,0,1-2,1.09,2.93,2.93,0,0,1-2-.63,2,2,0,0,1-.67-1.53,1.63,1.63,0,0,1,.74-1.44A3.42,3.42,0,0,1,75.64,11.79Zm1.85,1.3A5.75,5.75,0,0,0,76,12.87c-.88,0-1.33.29-1.33.88a.84.84,0,0,0,.31.65,1.47,1.47,0,0,0,1,.26A1.51,1.51,0,0,0,77,14.22,1.7,1.7,0,0,0,77.49,13.09ZM82.32,9l1.61,4.83L85.34,9H87l-2.57,7.92a4,4,0,0,1-1,1.73,2,2,0,0,1-1.45.52,3.91,3.91,0,0,1-1.79-.44V17.3a2.7,2.7,0,0,0,1.45.45,1,1,0,0,0,.78-.38,2.74,2.74,0,0,0,.51-1l.21-.65L80.47,9Z" style="fill:#08083d"/><path d="M31.92,23.4a.21.21,0,0,1,0-.12.16.16,0,0,1,.12,0h.7a1.21,1.21,0,0,1,.38.06.92.92,0,0,1,.3.18.77.77,0,0,1,.19.28.87.87,0,0,1,.07.37.9.9,0,0,1-.07.37.81.81,0,0,1-.19.29.92.92,0,0,1-.3.18,1.22,1.22,0,0,1-.38.07h-.53v.86a.17.17,0,0,1,0,.12.21.21,0,0,1-.12,0A.18.18,0,0,1,32,26a.17.17,0,0,1,0-.12Zm.33.12v1.23h.51a.64.64,0,0,0,.46-.17.61.61,0,0,0,.17-.45.6.6,0,0,0-.17-.44.64.64,0,0,0-.46-.17Z"/><path d="M35.7,25.27a.9.9,0,0,1-.06.34.72.72,0,0,1-.16.25.6.6,0,0,1-.25.16.87.87,0,0,1-.32.06.88.88,0,0,1-.33-.06.67.67,0,0,1-.25-.16.72.72,0,0,1-.16-.25.9.9,0,0,1-.05-.34v-.55a.93.93,0,0,1,.05-.34.72.72,0,0,1,.16-.25.67.67,0,0,1,.25-.16.88.88,0,0,1,.33-.06.87.87,0,0,1,.32.06.6.6,0,0,1,.25.16.72.72,0,0,1,.16.25.93.93,0,0,1,.06.34Zm-1.27,0a.55.55,0,0,0,.12.37.45.45,0,0,0,.36.15.43.43,0,0,0,.35-.15.51.51,0,0,0,.13-.37V24.7a.51.51,0,0,0-.13-.37.43.43,0,0,0-.35-.15.45.45,0,0,0-.36.15.55.55,0,0,0-.12.37Z"/><path d="M38,25.93a.17.17,0,0,1-.17.13.17.17,0,0,1-.16-.13l-.4-1.45-.38,1.45a.18.18,0,0,1-.17.13.18.18,0,0,1-.18-.13l-.5-1.78v0a.15.15,0,0,1,.15-.17.12.12,0,0,1,.1,0,.15.15,0,0,1,.06.09l.38,1.5.38-1.49a.21.21,0,0,1,.06-.1.21.21,0,0,1,.11,0,.25.25,0,0,1,.11,0,.21.21,0,0,1,.06.1l.38,1.49.39-1.51s0-.06.05-.09a.12.12,0,0,1,.09,0,.18.18,0,0,1,.1,0,.19.19,0,0,1,0,.1.34.34,0,0,1,0,.09Z"/><path d="M40.33,25.32a.13.13,0,0,1,.11.05.12.12,0,0,1,0,.12.63.63,0,0,1-.23.43.82.82,0,0,1-.53.16,1.07,1.07,0,0,1-.32,0,.72.72,0,0,1-.25-.16.78.78,0,0,1-.16-.24.88.88,0,0,1-.06-.33v-.58a.93.93,0,0,1,.06-.34.72.72,0,0,1,.16-.25.6.6,0,0,1,.25-.16A.88.88,0,0,1,40,24a.63.63,0,0,1,.24.16.72.72,0,0,1,.16.25.93.93,0,0,1,0,.34v.16a.14.14,0,0,1-.15.16h-1.1v.29a.48.48,0,0,0,.13.35.43.43,0,0,0,.36.14.48.48,0,0,0,.35-.11.49.49,0,0,0,.13-.27C40.22,25.36,40.26,25.32,40.33,25.32Zm-1.1-.53h1v-.1a.57.57,0,0,0-.12-.37.43.43,0,0,0-.35-.15.43.43,0,0,0-.36.15.52.52,0,0,0-.13.37Z"/><path d="M41.3,24.22a.58.58,0,0,1,.22-.22.68.68,0,0,1,.31-.08.14.14,0,0,1,.11,0,.13.13,0,0,1,0,.1.14.14,0,0,1,0,.11.13.13,0,0,1-.09,0,.52.52,0,0,0-.39.14.53.53,0,0,0-.14.37v1.19a.15.15,0,0,1,0,.11.16.16,0,0,1-.27-.11V24.07a.13.13,0,0,1,0-.1.13.13,0,0,1,.09,0,.14.14,0,0,1,.09,0,.09.09,0,0,1,0,.08Z"/><path d="M43.66,25.32a.14.14,0,0,1,.11.05.12.12,0,0,1,0,.12.63.63,0,0,1-.23.43.84.84,0,0,1-.53.16,1,1,0,0,1-.32,0,.72.72,0,0,1-.25-.16.63.63,0,0,1-.16-.24.88.88,0,0,1-.06-.33v-.58a.93.93,0,0,1,.06-.34.69.69,0,0,1,.41-.41.79.79,0,0,1,.32-.06.75.75,0,0,1,.31.06.6.6,0,0,1,.25.16.72.72,0,0,1,.16.25,1.21,1.21,0,0,1,.05.34v.16a.14.14,0,0,1-.15.16h-1.1v.29a.48.48,0,0,0,.13.35.43.43,0,0,0,.36.14.44.44,0,0,0,.34-.11.45.45,0,0,0,.14-.27C43.55,25.36,43.59,25.32,43.66,25.32Zm-1.1-.53h1v-.1a.57.57,0,0,0-.12-.37.45.45,0,0,0-.36-.15.43.43,0,0,0-.35.15.52.52,0,0,0-.13.37Z"/><path d="M45.85,25.92a.12.12,0,0,1-.13.14l-.08,0a.2.2,0,0,1-.06-.09l0-.15a.55.55,0,0,1-.23.2.73.73,0,0,1-.33.08.66.66,0,0,1-.53-.21.79.79,0,0,1-.19-.56v-.63a.79.79,0,0,1,.19-.56.66.66,0,0,1,.53-.21.64.64,0,0,1,.31.07.58.58,0,0,1,.23.18v-.87a.16.16,0,0,1,0-.12.18.18,0,0,1,.11,0,.14.14,0,0,1,.16.16Zm-.8-.12a.49.49,0,0,0,.36-.14.52.52,0,0,0,.13-.37V24.7a.52.52,0,0,0-.13-.36.46.46,0,0,0-.36-.15.41.41,0,0,0-.35.14.53.53,0,0,0-.11.34v.65a.53.53,0,0,0,.11.34A.41.41,0,0,0,45.05,25.8Z"/><path d="M47.37,23.29a.15.15,0,0,1,0-.11.14.14,0,0,1,.11,0,.12.12,0,0,1,.11,0,.16.16,0,0,1,0,.11v.87a.58.58,0,0,1,.23-.18.62.62,0,0,1,.31-.07.69.69,0,0,1,.53.21.84.84,0,0,1,.19.56v.63a.84.84,0,0,1-.19.56.69.69,0,0,1-.53.21.67.67,0,0,1-.33-.08.52.52,0,0,1-.24-.2l0,.15a.13.13,0,0,1,0,.09l-.08,0c-.09,0-.13,0-.13-.14Zm.8,2.51a.4.4,0,0,0,.34-.14.49.49,0,0,0,.12-.34v-.65a.49.49,0,0,0-.12-.34.4.4,0,0,0-.34-.14.43.43,0,0,0-.36.15.52.52,0,0,0-.13.36v.59a.52.52,0,0,0,.13.37A.46.46,0,0,0,48.17,25.8Z"/><path d="M50,26.75a.24.24,0,0,1-.06.08.19.19,0,0,1-.08,0,.11.11,0,0,1-.11-.06.12.12,0,0,1,0-.13l.23-.62-.69-1.9a.18.18,0,0,1,0-.14.13.13,0,0,1,.13-.08.14.14,0,0,1,.15.11l.54,1.58L50.66,24a.14.14,0,0,1,.14-.11.15.15,0,0,1,.13.07.14.14,0,0,1,0,.14Z"/></svg>